<?xml version="1.0" encoding="utf-8"?>
<!-- Generator: Adobe Illustrator 25.3.1, SVG Export Plug-In . SVG Version: 6.00 Build 0)  -->
<svg version="1.1" xmlns="http://www.w3.org/2000/svg" xmlns:xlink="http://www.w3.org/1999/xlink" x="0px" y="0px"
	 viewBox="0 0 176.4 155.8" style="enable-background:new 0 0 176.4 155.8;" xml:space="preserve">
<style type="text/css">
	.st0{display:none;}
	.st1{display:inline;fill:#EC7F23;}
	.st2{fill:#EC7F23;}
	.st3{display:inline;}
</style>
<g id="Layer_1" class="st0">
	<path id="Path_5" class="st1" d="M157.5,90.4l-6-1.9V12.2c0-6.7-5.5-12.2-12.2-12.2h0L102,0.2c-1.2,0-2.4,0.1-3.6,0.3L85.8,2.7
		C81-1.2,74.1-0.8,69.7,3.5c-1,1-1,2.5,0,3.4l13.8,13.8c1,1,2.5,1,3.4,0c3.6-3.6,4.6-9.1,2.4-13.7l9.9-1.7c0.9-0.2,1.9-0.2,2.8-0.2
		l37.3-0.1h0c4,0,7.3,3.3,7.3,7.3v74.9l-43.3-13.3c-2.6-0.8-5.3-1.2-8-1.2H78.4V48.7h12.2c1.3,0,2.4-1.1,2.4-2.5
		c0-1.3-1.1-2.4-2.4-2.4H61.4c-1.3,0-2.4,1.1-2.4,2.5c0,1.3,1.1,2.4,2.4,2.4h12.2v23.9H53.2c-1.1,0-2.1-0.7-2.4-1.8L34,11.9
		c-1.8-6.4-8.4-10.1-14.8-8.3S9.1,12,10.9,18.4l19.4,69.8c1.5,5.3,6.4,9,11.9,9h17.2l8.7,39.1H56.5c-6.7,0-12.2,5.5-12.2,12.2v4.9
		c0,1.3,1.1,2.4,2.4,2.4c0,0,0,0,0,0h63.3c1.3,0,2.4-1.1,2.4-2.4c0,0,0,0,0,0v-4.9c0-6.7-5.5-12.2-12.2-12.2H88.8l8.7-38.9
		c1.5,0.1,3,0.4,4.5,0.8l48.6,15c6.3,2,13-1.5,14.9-7.8C167.4,99.1,163.9,92.4,157.5,90.4C157.6,90.5,157.6,90.5,157.5,90.4
		L157.5,90.4z M84.9,15.3l-9.7-9.7c3.6-1.7,8-0.2,9.7,3.5C85.8,11,85.8,13.3,84.9,15.3z M107.7,148.5v2.4H49.2v-2.4
		c0-4,3.3-7.3,7.3-7.3h43.8C104.4,141.2,107.6,144.5,107.7,148.5L107.7,148.5z M83.8,136.4H73.1l-8.7-39h28L83.8,136.4z
		 M158.2,107.5c-1.8,1.3-4.1,1.7-6.3,1.1l-48.6-14.9c-2.6-0.8-5.3-1.2-8-1.2H42.2c-3.4,0-6.3-2.2-7.2-5.5L15.6,17.1
		c-1-3.8,1.2-7.7,5-8.8c3.8-1,7.6,1.2,8.7,4.9l16.8,58.9c0.9,3.2,3.8,5.3,7.1,5.4h42.1c2.2,0,4.4,0.3,6.6,1l54.2,16.7
		c3.7,1.1,5.8,5.1,4.7,8.8C160.3,105.3,159.4,106.6,158.2,107.5L158.2,107.5z"/>
</g>
<g id="Layer_2">
	<g id="Group_5" transform="translate(860.972 -2.768)">
		<path id="Path_8" class="st2" d="M-731.6,48.7c0.2,1.5,1.6,2.5,3.1,2.3c1.5-0.2,2.5-1.6,2.3-3.1c0-0.1,0-0.1,0-0.2
			c-1.7-10.1-8.7-18.6-18.4-22.2c-1.8-0.7-3.7-1.3-5.6-1.7c-1.5-0.4-3,0.4-3.4,1.8c-0.4,1.5,0.4,3,1.8,3.4c0.2,0,0.3,0.1,0.5,0.1
			c1.6,0.3,3.2,0.8,4.7,1.4C-738.7,33.5-733,40.4-731.6,48.7z M-737,80.7c-1.4-0.7-3-0.1-3.7,1.3c0,0,0,0,0,0
			c-5.6,11.7-8.2,24.5-7.8,37.4c0,14.7-2.5,24.7-7.5,29.7c-2.6,2.6-6.2,4-9.9,3.8c-12.3,0-13.9-13.7-15.5-36.1l-0.1-1.5
			c-0.2-4.4-1.5-8.7-3.9-12.3c-3.1-4.4-9.2-5.4-13.6-2.3c-0.9,0.6-1.7,1.4-2.3,2.3c-2.4,3.7-3.8,7.9-3.9,12.3l-0.1,1.5
			c-1.6,22.5-3.4,36.1-15.5,36.1c-3.7,0.2-7.3-1.2-9.9-3.8c-5-5-7.5-15-7.5-29.7c0.5-15.7-3.5-31.2-11.5-44.6
			c-5.7-8.9-7.2-19.9-4.3-30c2.3-6.6,7.4-11.8,13.9-14.2c10.9-4.3,20.9-1.2,30.6,1.7c5.2,1.9,10.7,3,16.2,3.3c3-0.1,5.9-0.5,8.8-1.2
			c1.5-0.4,2.3-1.9,1.9-3.4c-0.4-1.4-1.8-2.3-3.2-2c-2.5,0.7-5,1-7.5,1.1c-5-0.4-9.9-1.4-14.6-3.1c-10.1-3.1-21.5-6.5-34.2-1.5
			c-8,3-14.3,9.4-17.1,17.5c-3.5,11.7-1.8,24.3,4.7,34.6c7.6,12.6,11.4,27.1,10.8,41.9c0,16.4,2.9,27.4,9.1,33.6
			c3.7,3.6,8.7,5.6,13.8,5.5c18,0,19.5-20,21-41.2l0.1-1.5c0.1-3.4,1.1-6.7,2.9-9.5c1.5-1.9,4.2-2.3,6.1-0.8
			c0.3,0.2,0.6,0.5,0.8,0.8c1.8,2.9,2.8,6.1,2.9,9.5l0.1,1.5c1.5,21.2,2.9,41.2,21,41.2c5.2,0.2,10.2-1.8,13.8-5.5
			c6.1-6.1,9.1-17.1,9.1-33.6c-0.5-12.1,2-24.1,7.3-35C-735.1,83-735.6,81.3-737,80.7C-737,80.7-737,80.7-737,80.7z"/>
		<path id="Path_9" class="st2" d="M-686.2,109.4l-28.2-45.9c13.2-15.4,11.4-38.6-4-51.8s-38.6-11.4-51.8,4
			c-13.2,15.4-11.4,38.6,4,51.8c9,7.7,21.1,10.6,32.6,7.8l28.2,45.9c3.3,5.3,10.2,6.9,15.5,3.7l0,0
			C-684.7,121.6-683,114.7-686.2,109.4L-686.2,109.4z M-773,40c0-17.1,13.8-30.9,30.9-30.9c17.1,0,30.9,13.8,30.9,30.9
			c0,8.1-3.2,16-8.9,21.7c-0.8,0.8-1.5,1.5-2.3,2.2c-0.5,0.4-1,0.8-1.5,1.1c-0.4,0.3-0.8,0.6-1.2,0.8c-0.5,0.4-1.1,0.7-1.6,1
			c-0.5,0.3-1,0.6-1.5,0.8c-0.5,0.3-1.1,0.5-1.6,0.8c-1,0.4-2,0.8-3.1,1.1l0,0c-16.3,5-33.6-4.2-38.6-20.5
			C-772.5,46.1-773,43-773,40L-773,40z M-692.8,120.2c-2.7,1.6-6.2,0.8-7.9-1.9l-27.4-44.7c1.2-0.5,2.3-1,3.4-1.6l0,0
			c0.6-0.3,1.1-0.6,1.7-0.9c1.7-1,3.2-2.2,4.7-3.4l27.4,44.7C-689.3,115-690.1,118.5-692.8,120.2z"/>
		<path id="Path_10" class="st2" d="M-715.6,40c0-14.7-11.9-26.5-26.5-26.5c-14.7,0-26.5,11.9-26.5,26.5c0,14.7,11.9,26.5,26.5,26.5
			C-727.5,66.5-715.6,54.6-715.6,40C-715.6,40-715.6,40-715.6,40z M-763.1,40c0-11.6,9.4-21,21-21c11.6,0,21,9.4,21,21
			s-9.4,21-21,21l0,0C-753.7,61-763.1,51.6-763.1,40z"/>
	</g>
</g>
<g id="Layer_3" class="st0">
	<g id="_10-Dental_Care" transform="translate(423 -7.085)" class="st3">
		<path id="Path_13" class="st2" d="M-257,126.4c0.4,0.9,3.8,8.2-0.6,12.7l-0.3,0.3c-14.8,15.1-35.1,23.5-56.3,23.3H-360
			c-2.4-0.4-19.7-3.4-29.7-9.8v2.4c0,1.7-1.4,3.1-3.1,3.1l0,0h-18.4c-1.7,0-3.1-1.4-3.1-3.1l0,0v-55c0-1.7,1.4-3.1,3.1-3.1l0,0h18.3
			c1.7,0,3.1,1.4,3.1,3.1l0,0v6.1h15.1c6.4,0.2,12.6,2.6,17.3,7c3.6,3.2,8.2,5,13,5.2h18.1c5.3,0,15.3,2.5,15.3,12.2h17.9
			c5.1-0.9,18.5-3.5,23.1-5.8c6.3-3.1,10.9-1.2,12.6,0.6C-257.3,125.9-257.2,126.1-257,126.4z M-262,134.8c0.9-0.9,0.3-3.4-0.3-5
			c-1.8-0.6-3.7-0.3-5.2,0.7c-6.1,3.1-23.2,6.1-25,6.4h-45.9c-1.7,0-3-1.4-3-3.1c0-1.6,1.4-3,3-3h21.1c0-6.1-8.7-6.1-9.2-6.1h-18
			c-6.4-0.2-12.6-2.7-17.3-7c-3.6-3.2-8.2-5-13-5.2h-15.1v32.7c4.6,5.4,20.8,10,30.5,11.5h45c19.5,0.2,38.2-7.5,51.9-21.4
			L-262,134.8z M-395.9,152.2v-48.9h-12.2v48.9H-395.9z"/>
		<path id="Path_14" class="st2" d="M-261.5,23c3.6,10.9-1.2,21.4-6.9,33.6c-4.7,10-10,21.4-11.3,35c-1.7,16.9-7.2,20.6-11.6,20.6
			h-0.4c-6.8-0.3-12.2-10.1-12.2-17.9c0-10.4-2.4-21.4-9.2-21.4c-6.8,0-9.2,11-9.2,21.4c0,7.8-5.5,17.5-12.4,17.9h-0.4
			c-4.5,0-9.9-3.7-11.6-20.6c-1.3-13.7-6.6-25-11.3-35c-5.7-12.1-10.5-22.5-6.9-33.4c2-7.5,8-13.4,15.5-15.3
			c7.1-1.7,14.6,0.2,20.1,5c4.6,4.6,13.6,7.4,16.2,8.2c2.6-0.7,11.5-3.5,16.2-8.2c5.5-4.8,13-6.7,20.1-5
			C-269.4,9.7-263.5,15.5-261.5,23L-261.5,23z M-274.1,53.8c5.3-11.4,9.5-20.3,6.6-29c-1.4-5.5-5.7-9.9-11.1-11.4
			c-5-1.2-10.4,0.1-14.3,3.4c-6.6,6.6-19.2,9.8-19.8,10h-1.5c-0.6,0-13.1-3.3-19.8-10c-4-3.3-9.3-4.6-14.3-3.4
			c-5.4,1.5-9.6,5.9-11,11.4c-2.9,8.6,1.3,17.6,6.6,29c4.9,10.4,10.4,22.2,11.9,37c1.2,12,4.2,15.1,5.6,15.1l0,0
			c2.5,0,6.6-5.9,6.6-11.8c0-17.5,5.6-27.5,15.3-27.5c9.7,0,15.3,10,15.3,27.5c0,5.9,4.1,11.6,6.6,11.8c1.4,0,4.5-3.1,5.7-15.1
			C-284.4,76.1-278.9,64.3-274.1,53.8z"/>
	</g>
</g>
<g id="Layer_4" class="st0">
	<g id="Group_4" transform="translate(1239.732 -3.706)" class="st3">
		<circle id="Ellipse_6" class="st2" cx="-1151.5" cy="39.7" r="2.5"/>
		<path id="Path_6" class="st2" d="M-1102,136.2h-5.3v-5.3c0-1.4-1.1-2.5-2.5-2.5c-1.4,0-2.5,1.1-2.5,2.5v5.3h-5.3
			c-1.4,0-2.5,1.1-2.5,2.5s1.1,2.5,2.5,2.5h5.3v5.3c0,1.4,1.1,2.5,2.5,2.5c1.4,0,2.5-1.1,2.5-2.5v-5.3h5.3c1.4,0,2.5-1.1,2.5-2.5
			S-1100.6,136.2-1102,136.2z"/>
		<path id="Path_7" class="st2" d="M-1078.1,133.9c-2.5-14.8-11.9-23.9-24.3-23.9h-31.9v-9.3c5.6-2.6,9-4.8,10.7-6.9
			c3.5-4.3,6-10.3,8-19.4c4.6-0.7,8.4-5.5,9.1-11.7c0.6-5.9-1.8-11.3-5.7-13.3V33.5c0-29.5-29.5-29.5-39.2-29.5
			c-9.7,0-39.2,0-39.2,29.5v15.8c-3.9,2.1-6.3,7.4-5.7,13.3c0.6,6.2,4.4,11,9,11.7c2,9,4.5,15.1,8,19.4c1.8,2.2,5.1,4.3,10.7,6.9
			v9.3h-31.9c-12.5,0-21.8,9.2-24.3,23.9l-4.5,22.4c-0.3,1.4,0.6,2.7,2,3c0.2,0,0.3,0,0.5,0h150.8c1.4,0,2.5-1.1,2.5-2.5
			c0-0.2,0-0.3,0-0.5L-1078.1,133.9z M-1185.7,33.5c0-21.7,18.3-24.4,34.2-24.4c15.9,0,34.2,2.8,34.2,24.4v6.4h-20.8
			c0,0,0-0.1,0-0.1c0,0,0,0,0-0.1c0-7.4-6-13.4-13.4-13.4c-7.4,0-13.4,6-13.4,13.4c0,0.1,0,0.1,0,0.2h-20.8V33.5z M-1159.7,41.6
			c0-0.2-0.1-0.3-0.1-0.5c-0.1-0.5-0.1-1-0.1-1.4c0-4.6,3.8-8.4,8.4-8.4c4.6,0,8.4,3.8,8.4,8.4c0,0,0,0,0,0c0,0,0,0.1,0,0.1
			c0,0.4-0.1,0.9-0.1,1.3c0,0.2-0.1,0.4-0.1,0.5c-1.1,4.5-5.6,7.3-10.1,6.3C-1156.6,47.2-1159,44.7-1159.7,41.6z M-1166.2,115
			c1.4,0,2.5-1.1,2.5-2.5V99c0-1-0.6-1.9-1.5-2.3c-5.5-2.5-9-4.6-10.4-6.2c-3.2-4-5.5-9.9-7.5-19.2c-0.3-1.3-1.6-2.2-2.9-2l-0.1,0
			c-2.3,0.3-5-2.5-5.5-7.2c-0.5-4.5,1.6-8.1,3.8-8.6c1.1-0.3,2-1.3,2-2.5v-6.1h21.8c2.9,6.8,10.8,10,17.6,7.1
			c3.2-1.4,5.8-3.9,7.1-7.1h21.8v6.1c0,1.2,0.8,2.2,2,2.5c2.2,0.5,4.3,4.1,3.8,8.6c-0.5,4.5-3,7.3-5.1,7.3c-0.1,0-0.2,0-0.3,0
			s-0.2,0-0.3-0.1c-1.3-0.2-2.6,0.6-2.9,2c-1.9,9.3-4.2,15.3-7.5,19.2c-1.3,1.6-4.8,3.7-10.4,6.2c-0.9,0.4-1.5,1.3-1.5,2.3v13.4
			c0,1.4,1.1,2.5,2.5,2.5l0,0h15.9c-0.2,0.2-0.3,0.4-0.5,0.6c-0.1,0.1-0.2,0.3-0.4,0.4c-0.4,0.4-0.7,0.8-1.1,1.1
			c0,0-0.1,0.1-0.1,0.1c-0.5,0.4-0.9,0.8-1.4,1.1c-0.2,0.1-0.3,0.2-0.5,0.3c-0.4,0.3-0.7,0.5-1.1,0.7c-0.2,0.1-0.4,0.3-0.7,0.4
			c-0.4,0.2-0.7,0.4-1.1,0.6c-0.2,0.1-0.5,0.2-0.7,0.4c-0.4,0.2-0.8,0.4-1.2,0.6c-0.3,0.1-0.5,0.2-0.8,0.3c-0.5,0.2-0.9,0.4-1.4,0.6
			c-0.2,0.1-0.5,0.2-0.7,0.3c-0.7,0.3-1.4,0.5-2.2,0.7l-0.1,0c-0.8,0.2-1.5,0.4-2.3,0.6c-0.3,0.1-0.5,0.1-0.8,0.2
			c-0.6,0.1-1.1,0.3-1.7,0.4c-0.3,0.1-0.6,0.1-0.9,0.2c-0.5,0.1-1.1,0.2-1.6,0.3c-0.3,0.1-0.7,0.1-1,0.1c-0.5,0.1-1.1,0.1-1.6,0.2
			c-0.3,0-0.7,0.1-1,0.1c-0.6,0.1-1.2,0.1-1.8,0.1c-0.3,0-0.6,0-0.9,0.1c-0.9,0-1.8,0.1-2.8,0.1s-1.8,0-2.8-0.1
			c-0.3,0-0.6,0-0.9-0.1c-0.6,0-1.2-0.1-1.8-0.1c-0.3,0-0.7-0.1-1-0.1c-0.6-0.1-1.1-0.1-1.6-0.2c-0.3,0-0.7-0.1-1-0.1
			c-0.5-0.1-1.1-0.2-1.6-0.3c-0.3-0.1-0.6-0.1-1-0.2c-0.6-0.1-1.1-0.2-1.7-0.4c-0.3-0.1-0.5-0.1-0.8-0.2c-0.8-0.2-1.6-0.4-2.3-0.6
			c0,0-0.1,0-0.1,0c-0.7-0.2-1.4-0.4-2.1-0.7c-0.2-0.1-0.5-0.2-0.7-0.3c-0.5-0.2-0.9-0.4-1.4-0.6c-0.3-0.1-0.5-0.2-0.8-0.3
			c-0.4-0.2-0.8-0.4-1.2-0.6c-0.3-0.1-0.5-0.3-0.7-0.4c-0.4-0.2-0.8-0.4-1.1-0.6c-0.2-0.1-0.5-0.3-0.7-0.4c-0.4-0.2-0.7-0.5-1.1-0.7
			c-0.2-0.1-0.4-0.2-0.5-0.4c-0.5-0.4-1-0.8-1.4-1.1c0,0-0.1-0.1-0.1-0.1c-0.4-0.4-0.8-0.7-1.1-1.1c-0.1-0.1-0.2-0.3-0.4-0.4
			c-0.2-0.2-0.3-0.4-0.5-0.6L-1166.2,115L-1166.2,115z M-1223.9,154.2l3.9-19.4c2.1-12.4,9.4-19.8,19.4-19.8h12.6c0,0,0,0.1,0,0.1
			c0.1,0.2,0.2,0.4,0.4,0.7c0.2,0.4,0.4,0.7,0.6,1.1c0.2,0.2,0.3,0.5,0.5,0.7c0.2,0.3,0.5,0.7,0.7,1c0.2,0.2,0.4,0.5,0.6,0.7
			c0.3,0.3,0.5,0.6,0.8,0.9c0.2,0.2,0.5,0.4,0.7,0.7c0.3,0.3,0.6,0.6,1,0.8c0.3,0.2,0.5,0.4,0.8,0.6c0.3,0.3,0.7,0.5,1.1,0.8
			c0.3,0.2,0.6,0.4,0.9,0.6c0.4,0.2,0.8,0.5,1.2,0.7c0.3,0.2,0.7,0.4,1,0.6c0.4,0.2,0.8,0.4,1.3,0.6c0.4,0.2,0.7,0.3,1.1,0.5
			c0.4,0.2,0.9,0.4,1.3,0.6c0.4,0.2,0.8,0.3,1.2,0.5c0.5,0.2,1,0.3,1.4,0.5c0.4,0.1,0.8,0.3,1.2,0.4c0.5,0.2,1,0.3,1.5,0.4
			c0.4,0.1,0.8,0.2,1.3,0.3c0.5,0.1,1.1,0.3,1.6,0.4c0.4,0.1,0.9,0.2,1.3,0.3c0.6,0.1,1.2,0.2,1.7,0.3c0.4,0.1,0.9,0.2,1.3,0.2
			c0.6,0.1,1.3,0.2,1.9,0.2c0.4,0,0.8,0.1,1.3,0.1c0.7,0.1,1.4,0.1,2.2,0.2c0.4,0,0.7,0.1,1.1,0.1c1.1,0.1,2.2,0.1,3.3,0.1
			s2.2,0,3.3-0.1c0.4,0,0.7-0.1,1.1-0.1c0.7,0,1.5-0.1,2.2-0.2c0.4,0,0.8-0.1,1.3-0.1c0.6-0.1,1.3-0.1,1.9-0.2
			c0.4-0.1,0.9-0.1,1.3-0.2c0.6-0.1,1.2-0.2,1.7-0.3c0.4-0.1,0.9-0.2,1.3-0.3c0.5-0.1,1.1-0.2,1.6-0.4c0.4-0.1,0.8-0.2,1.3-0.3
			c0.5-0.1,1-0.3,1.5-0.4c0.4-0.1,0.8-0.3,1.2-0.4c0.5-0.2,1-0.3,1.4-0.5c0.4-0.1,0.8-0.3,1.2-0.5c0.5-0.2,0.9-0.4,1.3-0.6
			c0.4-0.2,0.7-0.3,1.1-0.5c0.4-0.2,0.8-0.4,1.2-0.6c0.3-0.2,0.7-0.4,1-0.6c0.4-0.2,0.8-0.5,1.2-0.7c0.3-0.2,0.6-0.4,0.9-0.6
			c0.4-0.2,0.7-0.5,1.1-0.8c0.3-0.2,0.6-0.4,0.8-0.6c0.3-0.3,0.6-0.6,0.9-0.8c0.2-0.2,0.5-0.4,0.7-0.7c0.3-0.3,0.6-0.6,0.8-0.9
			c0.2-0.2,0.4-0.5,0.6-0.7c0.3-0.3,0.5-0.7,0.7-1c0.2-0.2,0.3-0.5,0.5-0.7c0.2-0.4,0.4-0.7,0.6-1.1c0.1-0.2,0.3-0.4,0.4-0.7
			c0,0,0-0.1,0-0.1h12.6c10,0,17.3,7.4,19.4,19.8l3.9,19.3L-1223.9,154.2L-1223.9,154.2z"/>
	</g>
</g>
</svg>
