<?xml version="1.0" encoding="utf-8"?>
<!-- Generator: Adobe Illustrator 25.2.3, SVG Export Plug-In . SVG Version: 6.00 Build 0)  -->
<svg version="1.1" xmlns="http://www.w3.org/2000/svg" xmlns:xlink="http://www.w3.org/1999/xlink" x="0px" y="0px"
	 viewBox="0 0 73 73" style="enable-background:new 0 0 73 73;" xml:space="preserve">
<style type="text/css">
	.st0{display:none;}
	.st1{display:inline;fill-rule:evenodd;clip-rule:evenodd;fill:#ED7F21;}
	.st2{fill:#ED7F21;}
</style>
<g id="Layer_1" class="st0">
	<path class="st1" d="M54.9,15.1c1.7,0,3,1.3,3,3c0,1.7-1.3,3-3,3s-3-1.3-3-3C51.9,16.4,53.2,15.1,54.9,15.1z M46.9,34.8
		c0.1,0.5,0.1,1,0.1,1.5c0,5.7-4.7,10.4-10.4,10.4c-5.7,0-10.4-4.7-10.4-10.4c0-5.7,4.7-10.4,10.4-10.4c0.5,0,1,0,1.5,0.1
		C42.7,26.7,46.2,30.3,46.9,34.8z M52.8,33.9c-1.1-7.1-6.7-12.8-13.8-13.8c-0.8-0.1-1.6-0.2-2.4-0.2c-9,0-16.4,7.4-16.4,16.4
		c0,9,7.4,16.4,16.4,16.4c9,0,16.4-7.4,16.4-16.4C53,35.5,53,34.7,52.8,33.9z M66.9,19.7v33.5c0,7.6-6.1,13.7-13.7,13.7H19.7
		C12.2,66.9,6,60.8,6,53.2V19.7C6,12.2,12.2,6,19.7,6h33.5C60.8,6,66.9,12.2,66.9,19.7z M73,19.7C73,8.8,64.1,0,53.2,0H19.7
		C8.8,0,0,8.8,0,19.7v33.5C0,64.1,8.8,73,19.7,73h33.5C64.1,73,73,64.1,73,53.2V19.7z"/>
</g>
<g id="Layer_2">
	<path class="st2" d="M67.8,36.9c0,1.5-0.1,3-0.3,4.5c0-0.2,0.1-0.4,0.1-0.6c-0.4,2.9-1.2,5.7-2.3,8.4c0.1-0.2,0.2-0.4,0.2-0.6
		c-0.6,1.5-1.4,3-2.3,4.5c-0.4,0.7-0.9,1.4-1.4,2.1c-0.1,0.2-0.2,0.3-0.4,0.5c-0.1,0.1-0.1,0.2-0.2,0.2c-0.3,0.3,0.4-0.5,0.1-0.2
		c-0.3,0.3-0.5,0.6-0.8,1c-1.1,1.3-2.2,2.5-3.5,3.5c-0.3,0.3-0.6,0.5-0.9,0.8c-0.1,0.1-0.3,0.2-0.4,0.3c-0.1,0.1-0.5,0.4,0.2-0.1
		c-0.1,0.1-0.2,0.2-0.3,0.3c-0.7,0.5-1.4,1-2,1.4c-1.6,1-3.3,1.9-5,2.6c0.2-0.1,0.4-0.2,0.6-0.2c-2.7,1.1-5.5,1.9-8.4,2.3
		c0.2,0,0.4-0.1,0.6-0.1c-3,0.4-6,0.4-9,0c0.2,0,0.4,0.1,0.6,0.1c-2.9-0.4-5.7-1.2-8.4-2.3c0.2,0.1,0.4,0.2,0.6,0.2
		c-1.5-0.6-3-1.4-4.5-2.3c-0.7-0.4-1.4-0.9-2.1-1.4c-0.2-0.1-0.3-0.2-0.5-0.4c-0.1-0.1-0.2-0.1-0.2-0.2c-0.3-0.3,0.5,0.4,0.2,0.1
		c-0.3-0.3-0.6-0.5-1-0.8c-1.3-1.1-2.5-2.2-3.5-3.5c-0.3-0.3-0.5-0.6-0.8-0.9c-0.1-0.1-0.2-0.3-0.3-0.4c-0.1-0.1-0.4-0.5,0.1,0.2
		c-0.1-0.1-0.2-0.2-0.3-0.3c-0.5-0.7-1-1.4-1.4-2c-1-1.6-1.9-3.3-2.6-5c0.1,0.2,0.2,0.4,0.2,0.6c-1.1-2.7-1.9-5.5-2.3-8.4
		c0,0.2,0.1,0.4,0.1,0.6c-0.4-3-0.4-6,0-9c0,0.2-0.1,0.4-0.1,0.6c0.4-2.9,1.2-5.7,2.3-8.4c-0.1,0.2-0.2,0.4-0.2,0.6
		c0.6-1.5,1.4-3,2.3-4.5c0.4-0.7,0.9-1.4,1.4-2.1c0.1-0.2,0.2-0.3,0.4-0.5c0.1-0.1,0.1-0.2,0.2-0.2c0.3-0.3-0.4,0.5-0.1,0.2
		c0.3-0.3,0.5-0.6,0.8-1c1.1-1.3,2.2-2.5,3.5-3.5c0.3-0.3,0.6-0.5,0.9-0.8c0.1-0.1,0.3-0.2,0.4-0.3c0.1-0.1,0.5-0.4-0.2,0.1
		c0.1-0.1,0.2-0.2,0.3-0.3c0.7-0.5,1.4-1,2-1.4c1.6-1,3.3-1.9,5-2.6c-0.2,0.1-0.4,0.2-0.6,0.2c2.7-1.1,5.5-1.9,8.4-2.3
		c-0.2,0-0.4,0.1-0.6,0.1c3-0.4,6-0.4,9,0c-0.2,0-0.4-0.1-0.6-0.1c2.9,0.4,5.7,1.2,8.4,2.3c-0.2-0.1-0.4-0.2-0.6-0.2
		c1.5,0.6,3,1.4,4.5,2.3c0.7,0.4,1.4,0.9,2.1,1.4c0.2,0.1,0.3,0.2,0.5,0.4c0.1,0.1,0.2,0.1,0.2,0.2c0.3,0.3-0.5-0.4-0.2-0.1
		c0.3,0.3,0.6,0.5,1,0.8c1.3,1.1,2.5,2.2,3.5,3.5c0.3,0.3,0.5,0.6,0.8,0.9c0.1,0.1,0.2,0.3,0.3,0.4c0.1,0.1,0.4,0.5-0.1-0.2
		c0.1,0.1,0.2,0.2,0.3,0.3c0.5,0.7,1,1.4,1.4,2c1,1.6,1.9,3.3,2.6,5c-0.1-0.2-0.2-0.4-0.2-0.6c1.1,2.7,1.9,5.5,2.3,8.4
		c0-0.2-0.1-0.4-0.1-0.6C67.7,33.8,67.8,35.3,67.8,36.9c0,1.2,1.1,2.4,2.4,2.4c1.3-0.1,2.4-1,2.4-2.4c0-7.3-2.3-14.6-6.5-20.6
		c-4.3-6-10.2-10.5-17.1-13C42,0.7,34.1,0.4,27,2.5C20.2,4.4,13.9,8.5,9.4,14c-2.4,2.9-4.3,6.1-5.7,9.6C2.2,27,1.5,30.6,1.2,34.3
		c-0.6,7.3,1.3,14.8,5.1,21.1c3.7,6.1,9.2,11,15.7,14c3.5,1.6,7.2,2.6,11,3c3.7,0.4,7.5,0.2,11.1-0.5c7-1.4,13.6-5.1,18.5-10.2
		c5-5.2,8.4-11.9,9.5-19.1c0.3-1.9,0.5-3.8,0.5-5.7c0-1.2-1.1-2.4-2.4-2.4C68.9,34.5,67.8,35.5,67.8,36.9z"/>
	<path class="st2" d="M37,52.6c0-2.8,0-5.5,0-8.3c0-4.3,0-8.6,0-12.9c0-1.1-0.1-2.3,0.1-3.5c0,0.2-0.1,0.4-0.1,0.6
		c0.1-0.5,0.2-1,0.4-1.5c-0.1,0.2-0.2,0.4-0.2,0.6c0.2-0.4,0.3-0.7,0.5-1c0,0,0.2-0.3,0.2-0.3c0,0-0.4,0.5-0.2,0.2
		c0.1-0.1,0.2-0.3,0.4-0.4c0.1-0.1,0.3-0.2,0.4-0.3c0.2-0.1,0.4-0.3-0.2,0.1c0.1-0.1,0.2-0.1,0.3-0.2c0.3-0.2,0.7-0.4,1-0.5
		c-0.2,0.1-0.4,0.2-0.6,0.2c0.5-0.2,1-0.3,1.5-0.4c-0.2,0-0.4,0.1-0.6,0.1c0.8-0.1,1.5-0.1,2.3-0.1c0.7,0,1.4,0,2,0
		c1.2,0,2.4-1.1,2.4-2.4c-0.1-1.3-1-2.4-2.4-2.4c-1.1,0-2.2,0-3.4,0c-2.4,0-4.9,1-6.5,2.9c-1.4,1.6-2.2,3.6-2.2,5.8
		c0,0.6,0,1.1,0,1.7c0,2.6,0,5.2,0,7.7c0,3,0,6.1,0,9.1c0,1.7,0,3.3,0,5c0,0,0,0.1,0,0.1c0,1.2,1.1,2.4,2.4,2.4
		C35.9,54.9,37,53.9,37,52.6z"/>
	<path class="st2" d="M42.3,33.8c-1.6,0-3.2,0-4.8,0c-2.6,0-5.2,0-7.7,0c-0.6,0-1.2,0-1.8,0c-1.2,0-2.4,1.1-2.4,2.4
		c0.1,1.3,1,2.4,2.4,2.4c1.6,0,3.2,0,4.8,0c2.6,0,5.2,0,7.7,0c0.6,0,1.2,0,1.8,0c1.2,0,2.4-1.1,2.4-2.4
		C44.6,34.9,43.6,33.8,42.3,33.8z"/>
</g>
</svg>
