<?xml version="1.0" encoding="utf-8"?>
<!-- Generator: Adobe Illustrator 25.3.1, SVG Export Plug-In . SVG Version: 6.00 Build 0)  -->
<svg version="1.1" id="Layer_1" xmlns="http://www.w3.org/2000/svg" xmlns:xlink="http://www.w3.org/1999/xlink" x="0px" y="0px"
	 viewBox="0 0 391.3 99" style="enable-background:new 0 0 391.3 99;" xml:space="preserve">
<style type="text/css">
	.st0{enable-background:new    ;}
	.st1{fill:#3A86FF;}
	.st2{opacity:0.8;}
	.st3{fill:#8338EC;}
	.st4{fill:#ED7F01;}
</style>
<g>
	<g>
		<g class="st0">
			<path class="st1" d="M123.2,5.9h8c1.5,0,2.7,0.2,3.6,0.6c0.9,0.4,1.7,0.9,2.2,1.5s0.9,1.3,1.1,2.1c0.2,0.8,0.3,1.5,0.3,2.2
				s-0.1,1.4-0.3,2.2s-0.6,1.5-1.1,2.1s-1.3,1.1-2.2,1.5s-2.2,0.6-3.6,0.6h-4.9v10.1h-3.1V5.9z M126.3,15.9h4.1c0.6,0,1.2,0,1.8-0.1
				s1.1-0.3,1.6-0.5c0.5-0.3,0.8-0.6,1.1-1.1s0.4-1.1,0.4-1.9c0-0.8-0.1-1.4-0.4-1.9c-0.3-0.5-0.7-0.9-1.1-1.1
				c-0.5-0.3-1-0.4-1.6-0.5s-1.2-0.1-1.8-0.1h-4.1V15.9z"/>
			<path class="st1" d="M143.8,22.1c0,0.7,0.1,1.3,0.4,1.8c0.3,0.5,0.7,1,1.1,1.4c0.5,0.4,1,0.7,1.6,0.9s1.3,0.3,1.9,0.3
				c0.9,0,1.7-0.2,2.4-0.6s1.3-1,1.8-1.7l2.2,1.7c-1.6,2.1-3.9,3.1-6.8,3.1c-1.2,0-2.3-0.2-3.3-0.6c-1-0.4-1.8-1-2.5-1.7
				s-1.2-1.6-1.6-2.5c-0.4-1-0.5-2-0.5-3.2s0.2-2.2,0.6-3.2c0.4-1,0.9-1.8,1.6-2.5c0.7-0.7,1.5-1.3,2.5-1.7s2-0.6,3.2-0.6
				c1.4,0,2.5,0.2,3.4,0.7s1.7,1.1,2.3,1.9c0.6,0.8,1,1.6,1.3,2.6s0.4,1.9,0.4,2.9v1C155.8,22.1,143.8,22.1,143.8,22.1z M153,19.8
				c0-0.6-0.1-1.2-0.3-1.8c-0.2-0.5-0.5-1-0.8-1.4c-0.4-0.4-0.8-0.7-1.4-0.9c-0.5-0.2-1.2-0.3-1.9-0.3s-1.4,0.1-2,0.4
				c-0.6,0.3-1.1,0.6-1.5,1s-0.7,0.9-1,1.4s-0.3,1-0.3,1.6H153z"/>
			<path class="st1" d="M174.9,28.7H172v-2.2h-0.1c-0.6,0.8-1.3,1.5-2.3,1.9c-1,0.5-2,0.7-3,0.7c-1.2,0-2.3-0.2-3.2-0.6
				c-1-0.4-1.8-1-2.5-1.7s-1.2-1.6-1.6-2.5c-0.4-1-0.5-2-0.5-3.2s0.2-2.2,0.5-3.2c0.4-1,0.9-1.8,1.6-2.5c0.7-0.7,1.5-1.3,2.5-1.7
				s2-0.6,3.2-0.6c1.1,0,2.1,0.2,3.1,0.7s1.7,1.1,2.2,1.9h0.1V4.3h2.9V28.7z M167,26.4c0.8,0,1.5-0.1,2.1-0.4
				c0.6-0.3,1.2-0.6,1.6-1.1c0.4-0.5,0.8-1,1-1.7s0.4-1.4,0.4-2.1c0-0.8-0.1-1.5-0.4-2.1c-0.2-0.7-0.6-1.2-1-1.7s-1-0.8-1.6-1.1
				s-1.3-0.4-2.1-0.4s-1.5,0.1-2.1,0.4c-0.6,0.3-1.2,0.6-1.6,1.1c-0.4,0.5-0.8,1-1,1.7s-0.4,1.4-0.4,2.1c0,0.8,0.1,1.5,0.4,2.1
				c0.2,0.7,0.6,1.2,1,1.7s1,0.8,1.6,1.1S166.2,26.4,167,26.4z"/>
			<path class="st1" d="M178.9,7.9c0-0.6,0.2-1.1,0.6-1.5c0.4-0.4,0.9-0.6,1.5-0.6s1.1,0.2,1.5,0.6c0.4,0.4,0.6,0.9,0.6,1.5
				s-0.2,1.1-0.6,1.5c-0.4,0.4-0.9,0.6-1.5,0.6s-1.1-0.2-1.5-0.6C179.1,9,178.9,8.5,178.9,7.9z M179.5,13.4h2.9v15.3h-2.9V13.4z"/>
			<path class="st1" d="M187.1,15.3c0.8-0.8,1.8-1.3,2.8-1.7c1.1-0.4,2.2-0.6,3.2-0.6c1.1,0,2.1,0.1,2.9,0.4c0.8,0.3,1.5,0.7,2,1.1
				c0.5,0.5,0.9,1,1.1,1.6c0.2,0.6,0.4,1.3,0.4,1.9v7.8c0,0.5,0,1,0,1.5s0.1,0.9,0.1,1.3H197c-0.1-0.8-0.1-1.5-0.1-2.3h-0.1
				c-0.6,1-1.4,1.7-2.3,2.1c-0.9,0.4-1.9,0.6-3.1,0.6c-0.7,0-1.4-0.1-2-0.3s-1.2-0.5-1.7-0.9s-0.9-0.9-1.1-1.4
				c-0.3-0.6-0.4-1.2-0.4-2c0-1,0.2-1.8,0.7-2.5c0.4-0.7,1-1.2,1.8-1.6c0.8-0.4,1.7-0.7,2.7-0.9s2.1-0.3,3.3-0.3h2.1v-0.6
				c0-0.4-0.1-0.8-0.2-1.2c-0.2-0.4-0.4-0.7-0.7-1s-0.7-0.6-1.1-0.7c-0.5-0.2-1-0.3-1.6-0.3s-1,0.1-1.5,0.2s-0.8,0.2-1.1,0.4
				s-0.7,0.3-0.9,0.6c-0.3,0.2-0.5,0.4-0.8,0.6L187.1,15.3z M195.3,21.4c-0.7,0-1.4,0-2.1,0.1c-0.7,0.1-1.4,0.2-2,0.4
				s-1.1,0.5-1.5,0.9s-0.6,0.9-0.6,1.5c0,0.9,0.3,1.5,0.9,1.9c0.6,0.4,1.4,0.6,2.4,0.6c0.8,0,1.5-0.1,2-0.4s1-0.6,1.4-1
				s0.6-0.9,0.7-1.4c0.2-0.5,0.2-1,0.2-1.6v-1H195.3z"/>
			<path class="st1" d="M212,15.9h-4.2v6.9c0,0.4,0,0.9,0,1.3s0.1,0.8,0.2,1.1c0.1,0.3,0.4,0.6,0.6,0.8c0.3,0.2,0.7,0.3,1.3,0.3
				c0.3,0,0.7,0,1.1-0.1s0.7-0.2,1-0.4v2.6c-0.3,0.2-0.8,0.3-1.3,0.4c-0.5,0.1-1,0.1-1.3,0.1c-1.1,0-2-0.2-2.6-0.5s-1.1-0.7-1.4-1.2
				s-0.5-1-0.5-1.7s-0.1-1.2-0.1-1.9v-8h-3.2v-2.5h3.4V8.8h2.9v4.3h4.2L212,15.9L212,15.9z"/>
			<path class="st1" d="M215.8,13.4h2.9v2.4h0.1c0.2-0.4,0.5-0.8,0.8-1.1s0.7-0.6,1.1-0.9c0.4-0.2,0.8-0.4,1.3-0.6
				c0.5-0.1,0.9-0.2,1.4-0.2s0.9,0.1,1.3,0.2l-0.1,3.1c-0.2-0.1-0.5-0.1-0.7-0.2c-0.2,0-0.5-0.1-0.7-0.1c-1.4,0-2.5,0.4-3.3,1.2
				s-1.1,2-1.1,3.7v7.7h-2.9L215.8,13.4L215.8,13.4z"/>
			<path class="st1" d="M227.2,7.9c0-0.6,0.2-1.1,0.6-1.5s0.9-0.6,1.5-0.6s1.1,0.2,1.5,0.6c0.4,0.4,0.6,0.9,0.6,1.5
				s-0.2,1.1-0.6,1.5s-0.9,0.6-1.5,0.6s-1.1-0.2-1.5-0.6C227.5,9,227.2,8.5,227.2,7.9z M227.9,13.4h2.9v15.3h-2.9V13.4z"/>
			<path class="st1" d="M246.4,17.5c-0.5-0.6-1.1-1-1.7-1.3s-1.3-0.4-2.1-0.4c-0.8,0-1.5,0.1-2.1,0.4c-0.6,0.3-1.1,0.7-1.5,1.2
				s-0.7,1.1-0.9,1.7c-0.2,0.7-0.3,1.3-0.3,2s0.1,1.4,0.4,2c0.2,0.6,0.6,1.2,1,1.7s0.9,0.8,1.5,1.1s1.3,0.4,2,0.4
				c0.8,0,1.5-0.1,2.1-0.4c0.6-0.3,1.1-0.7,1.6-1.3l2.1,2.1c-0.8,0.8-1.6,1.4-2.6,1.8c-1,0.4-2.1,0.5-3.2,0.5
				c-1.2,0-2.3-0.2-3.2-0.6c-1-0.4-1.8-0.9-2.5-1.6s-1.3-1.5-1.6-2.5c-0.4-1-0.6-2.1-0.6-3.2s0.2-2.3,0.6-3.3s0.9-1.8,1.6-2.6
				c0.7-0.7,1.5-1.3,2.5-1.7s2.1-0.6,3.3-0.6c1.1,0,2.2,0.2,3.2,0.6c1,0.4,1.9,1,2.7,1.8L246.4,17.5z"/>
			<path class="st1" d="M260.2,5.9h8c1.6,0,3,0.2,4.2,0.5c1.2,0.4,2.3,0.9,3.2,1.5c0.9,0.6,1.6,1.3,2.2,2.1s1.1,1.6,1.4,2.5
				c0.3,0.8,0.6,1.7,0.7,2.5s0.2,1.6,0.2,2.3c0,1.5-0.3,2.9-0.8,4.2c-0.5,1.4-1.3,2.6-2.4,3.6c-1.1,1.1-2.4,1.9-3.9,2.6
				c-1.6,0.6-3.4,1-5.4,1h-7.5L260.2,5.9L260.2,5.9z M263.3,25.8h3.9c1.3,0,2.6-0.2,3.7-0.5s2.2-0.9,3.1-1.6
				c0.9-0.7,1.6-1.6,2.1-2.7s0.8-2.3,0.8-3.7c0-0.7-0.1-1.6-0.4-2.6c-0.2-1-0.7-1.9-1.3-2.8c-0.7-0.9-1.6-1.6-2.7-2.2
				s-2.7-0.9-4.5-0.9h-4.6v17H263.3z"/>
			<path class="st1" d="M286.1,22.1c0,0.7,0.1,1.3,0.4,1.8s0.7,1,1.1,1.4c0.5,0.4,1,0.7,1.6,0.9s1.3,0.3,1.9,0.3
				c0.9,0,1.7-0.2,2.4-0.6c0.7-0.4,1.3-1,1.8-1.7l2.2,1.7c-1.6,2.1-3.9,3.1-6.8,3.1c-1.2,0-2.3-0.2-3.3-0.6c-1-0.4-1.8-1-2.5-1.7
				s-1.2-1.6-1.6-2.5c-0.4-1-0.5-2-0.5-3.2s0.2-2.2,0.6-3.2s0.9-1.8,1.6-2.5s1.5-1.3,2.5-1.7s2-0.6,3.2-0.6c1.4,0,2.5,0.2,3.4,0.7
				s1.7,1.1,2.3,1.9c0.6,0.8,1,1.6,1.3,2.6s0.4,1.9,0.4,2.9v1C298.1,22.1,286.1,22.1,286.1,22.1z M295.2,19.8c0-0.6-0.1-1.2-0.3-1.8
				s-0.5-1-0.8-1.4c-0.4-0.4-0.8-0.7-1.4-0.9c-0.5-0.2-1.2-0.3-1.9-0.3c-0.7,0-1.4,0.1-2,0.4c-0.6,0.3-1.1,0.6-1.5,1s-0.7,0.9-1,1.4
				c-0.2,0.5-0.3,1-0.3,1.6H295.2z"/>
			<path class="st1" d="M301.8,13.4h2.9v2.4h0.1c0.4-0.8,1-1.5,1.9-2s1.9-0.8,3.1-0.8c0.7,0,1.4,0.1,2.1,0.3s1.3,0.6,1.8,1
				c0.5,0.5,0.9,1.1,1.2,1.8c0.3,0.7,0.5,1.6,0.5,2.6v9.8h-2.9v-9c0-0.7-0.1-1.3-0.3-1.8c-0.2-0.5-0.5-0.9-0.8-1.2s-0.7-0.5-1.1-0.7
				c-0.4-0.1-0.9-0.2-1.3-0.2c-0.6,0-1.2,0.1-1.7,0.3s-1,0.5-1.4,0.9s-0.7,1-0.9,1.6s-0.3,1.4-0.3,2.3v7.9h-2.9L301.8,13.4
				L301.8,13.4z"/>
			<path class="st1" d="M328,15.9h-4.2v6.9c0,0.4,0,0.9,0,1.3s0.1,0.8,0.2,1.1s0.4,0.6,0.6,0.8c0.3,0.2,0.7,0.3,1.3,0.3
				c0.3,0,0.7,0,1.1-0.1s0.7-0.2,1-0.4v2.6c-0.3,0.2-0.8,0.3-1.3,0.4c-0.5,0.1-1,0.1-1.3,0.1c-1.1,0-2-0.2-2.6-0.5s-1.1-0.7-1.4-1.2
				s-0.5-1-0.5-1.7c-0.1-0.6-0.1-1.2-0.1-1.9v-8h-3.2v-2.5h3.4V8.8h2.9v4.3h4.2v2.8H328z"/>
			<path class="st1" d="M331.3,7.9c0-0.6,0.2-1.1,0.6-1.5s0.9-0.6,1.5-0.6s1.1,0.2,1.5,0.6c0.4,0.4,0.6,0.9,0.6,1.5
				s-0.2,1.1-0.6,1.5S334,10,333.4,10s-1.1-0.2-1.5-0.6C331.5,9,331.3,8.5,331.3,7.9z M331.9,13.4h2.9v15.3h-2.9V13.4z"/>
			<path class="st1" d="M347.6,17.3c-0.3-0.4-0.8-0.8-1.3-1.1s-1.1-0.4-1.9-0.4c-0.7,0-1.3,0.1-1.8,0.4c-0.5,0.3-0.8,0.7-0.8,1.3
				c0,0.5,0.1,0.8,0.4,1.1s0.6,0.5,1,0.7s0.8,0.3,1.3,0.4c0.5,0.1,0.8,0.2,1.2,0.2c0.6,0.2,1.2,0.3,1.8,0.5s1,0.5,1.4,0.8
				s0.7,0.8,0.9,1.3c0.2,0.5,0.3,1.1,0.3,1.8c0,0.9-0.2,1.6-0.5,2.2c-0.4,0.6-0.8,1.1-1.4,1.5s-1.2,0.7-2,0.8s-1.5,0.3-2.2,0.3
				c-1.3,0-2.4-0.2-3.3-0.6c-1-0.4-1.8-1.1-2.6-2.1l2.2-1.8c0.5,0.5,1,0.9,1.6,1.3c0.6,0.4,1.3,0.5,2.1,0.5c0.4,0,0.7,0,1.1-0.1
				s0.7-0.2,1-0.4s0.5-0.4,0.7-0.6c0.2-0.2,0.3-0.5,0.3-0.9s-0.1-0.8-0.4-1.1s-0.6-0.5-1-0.7s-0.8-0.3-1.2-0.4
				c-0.4-0.1-0.8-0.2-1.1-0.2c-0.6-0.2-1.2-0.3-1.8-0.5c-0.6-0.2-1.1-0.5-1.5-0.8s-0.8-0.7-1-1.2c-0.3-0.5-0.4-1.1-0.4-1.8
				c0-0.8,0.2-1.5,0.5-2.1s0.8-1.1,1.3-1.5s1.2-0.7,1.9-0.9c0.7-0.2,1.4-0.3,2.1-0.3c1,0,2,0.2,3,0.6c0.9,0.4,1.7,1,2.3,1.9
				L347.6,17.3z"/>
			<path class="st1" d="M362,15.9h-4.2v6.9c0,0.4,0,0.9,0,1.3s0.1,0.8,0.2,1.1s0.4,0.6,0.6,0.8c0.3,0.2,0.7,0.3,1.3,0.3
				c0.3,0,0.7,0,1.1-0.1s0.7-0.2,1-0.4v2.6c-0.3,0.2-0.8,0.3-1.3,0.4c-0.5,0.1-1,0.1-1.3,0.1c-1.1,0-2-0.2-2.6-0.5s-1.1-0.7-1.4-1.2
				s-0.5-1-0.5-1.7s-0.1-1.2-0.1-1.9v-8h-3.2v-2.5h3.4V8.8h2.9v4.3h4.2v2.8H362z"/>
			<path class="st1" d="M365.7,13.4h2.9v2.4h0.1c0.2-0.4,0.5-0.8,0.8-1.1s0.7-0.6,1.1-0.9c0.4-0.2,0.8-0.4,1.3-0.6
				c0.5-0.1,0.9-0.2,1.4-0.2s0.9,0.1,1.3,0.2l-0.1,3.1c-0.2-0.1-0.5-0.1-0.7-0.2c-0.2,0-0.5-0.1-0.7-0.1c-1.4,0-2.5,0.4-3.3,1.2
				s-1.1,2-1.1,3.7v7.7h-2.9L365.7,13.4L365.7,13.4z"/>
			<path class="st1" d="M375.9,13.4h3.4l4.5,11.9h0.1l4.3-11.9h3.1L384,32c-0.3,0.7-0.5,1.3-0.8,1.8s-0.6,1-1,1.4s-0.9,0.7-1.4,0.9
				c-0.5,0.2-1.2,0.3-2,0.3c-0.4,0-0.9,0-1.3-0.1s-0.9-0.2-1.3-0.3l0.4-2.6c0.6,0.2,1.2,0.4,1.7,0.4c0.4,0,0.8-0.1,1.1-0.2
				c0.3-0.1,0.6-0.3,0.8-0.5c0.2-0.2,0.4-0.5,0.6-0.8s0.3-0.6,0.4-1l0.9-2.4L375.9,13.4z"/>
		</g>
	</g>
	<g>
		<g class="st0">
			<path class="st1" d="M143.3,60.8h-4.2l-2.8-3c-1,1.2-2,2.1-3.1,2.7s-2.4,0.9-3.9,0.9c-1.3,0-2.4-0.2-3.4-0.6
				c-0.9-0.4-1.7-0.9-2.3-1.5s-1.1-1.3-1.4-2.1s-0.4-1.6-0.4-2.4s0.1-1.5,0.4-2.2c0.3-0.7,0.7-1.3,1.1-1.8c0.5-0.5,1-1,1.7-1.5
				c0.6-0.4,1.3-0.8,2-1.1c-0.7-0.8-1.4-1.6-1.9-2.4s-0.8-1.8-0.8-2.9c0-0.9,0.2-1.6,0.5-2.3c0.3-0.7,0.8-1.2,1.3-1.7
				c0.6-0.5,1.2-0.8,1.9-1s1.5-0.4,2.3-0.4s1.6,0.1,2.3,0.3c0.7,0.2,1.4,0.5,1.9,1c0.5,0.4,1,1,1.3,1.6s0.5,1.4,0.5,2.3
				c0,0.7-0.1,1.4-0.4,2c-0.3,0.6-0.6,1.1-1.1,1.6s-1,0.9-1.5,1.3c-0.6,0.4-1.1,0.7-1.7,1l4.5,4.7l2.9-4.7h3.5l-4.4,6.8L143.3,60.8z
				 M129,50.1c-0.5,0.3-0.9,0.5-1.4,0.8s-0.9,0.6-1.2,1c-0.4,0.4-0.7,0.8-0.9,1.2c-0.2,0.5-0.3,1-0.3,1.6s0.1,1.1,0.4,1.6
				c0.2,0.5,0.6,0.9,1,1.3s0.9,0.7,1.4,0.9c0.5,0.2,1,0.3,1.6,0.3s1.1-0.1,1.6-0.3c0.5-0.2,0.9-0.4,1.4-0.7c0.4-0.3,0.8-0.6,1.2-0.9
				s0.7-0.7,1-1.1L129,50.1z M133.3,42.8c0-0.8-0.3-1.4-0.8-1.8s-1.2-0.7-2-0.7s-1.5,0.2-2.1,0.7s-0.9,1.1-0.9,2
				c0,0.4,0.1,0.8,0.2,1.1c0.1,0.3,0.3,0.7,0.5,1s0.5,0.6,0.7,0.9c0.3,0.3,0.5,0.5,0.8,0.8c0.4-0.2,0.8-0.5,1.2-0.7
				c0.4-0.3,0.8-0.5,1.1-0.9c0.3-0.3,0.6-0.7,0.9-1.1C133.1,43.7,133.3,43.3,133.3,42.8z"/>
			<path class="st1" d="M166,61.4c-1.7,0-3.3-0.3-4.8-0.9s-2.7-1.5-3.8-2.5c-1-1.1-1.9-2.3-2.5-3.8s-0.9-3-0.9-4.7s0.3-3.3,0.9-4.7
				c0.6-1.5,1.4-2.7,2.5-3.8c1-1.1,2.3-1.9,3.8-2.5s3.1-0.9,4.8-0.9s3.3,0.3,4.8,0.9s2.7,1.5,3.8,2.5c1,1.1,1.9,2.3,2.5,3.8
				s0.9,3,0.9,4.7s-0.3,3.3-0.9,4.7c-0.6,1.5-1.4,2.7-2.5,3.8c-1,1.1-2.3,1.9-3.8,2.5C169.4,61.1,167.8,61.4,166,61.4z M166,58.5
				c1.3,0,2.5-0.2,3.6-0.7s2-1.1,2.7-2c0.8-0.8,1.3-1.8,1.7-2.9s0.6-2.3,0.6-3.5s-0.2-2.4-0.6-3.5c-0.4-1.1-1-2.1-1.7-2.9
				c-0.8-0.8-1.7-1.5-2.7-2c-1.1-0.5-2.2-0.7-3.6-0.7s-2.5,0.2-3.6,0.7s-2,1.1-2.7,2c-0.8,0.8-1.3,1.8-1.7,2.9s-0.6,2.3-0.6,3.5
				s0.2,2.4,0.6,3.5c0.4,1.1,1,2.1,1.7,2.9c0.8,0.8,1.7,1.5,2.7,2C163.5,58.3,164.7,58.5,166,58.5z"/>
			<path class="st1" d="M181.6,45.5h2.9v2.4h0.1c0.2-0.4,0.5-0.8,0.8-1.1c0.3-0.3,0.7-0.6,1.1-0.9c0.4-0.2,0.8-0.4,1.3-0.6
				c0.5-0.1,0.9-0.2,1.4-0.2s0.9,0.1,1.3,0.2l-0.1,3.1c-0.2-0.1-0.5-0.1-0.7-0.2c-0.2,0-0.5-0.1-0.7-0.1c-1.4,0-2.5,0.4-3.3,1.2
				c-0.8,0.8-1.1,2-1.1,3.7v7.7h-3V45.5z"/>
			<path class="st1" d="M201.8,48.1h-4.2V55c0,0.4,0,0.9,0,1.3s0.1,0.8,0.2,1.1c0.1,0.3,0.4,0.6,0.6,0.8c0.3,0.2,0.7,0.3,1.3,0.3
				c0.3,0,0.7,0,1.1-0.1s0.7-0.2,1-0.4v2.6c-0.3,0.2-0.8,0.3-1.3,0.4s-1,0.1-1.3,0.1c-1.1,0-2-0.2-2.6-0.5s-1.1-0.7-1.4-1.2
				c-0.3-0.5-0.5-1-0.5-1.7c-0.1-0.6-0.1-1.2-0.1-1.9v-8h-3.4v-2.3h3.4v-4.3h2.9v4.3h4.2v2.6H201.8z"/>
			<path class="st1" d="M205.5,36.4h2.9v11.5h0.1c0.4-0.8,1-1.5,1.9-2s1.9-0.8,3.1-0.8c0.7,0,1.4,0.1,2.1,0.3c0.7,0.2,1.3,0.6,1.8,1
				c0.5,0.5,0.9,1.1,1.2,1.8c0.3,0.7,0.5,1.6,0.5,2.6v9.8h-2.9v-9c0-0.7-0.1-1.3-0.3-1.8s-0.5-0.9-0.8-1.2s-0.7-0.5-1.1-0.7
				s-0.9-0.2-1.3-0.2c-0.6,0-1.2,0.1-1.7,0.3c-0.5,0.2-1,0.5-1.4,0.9s-0.7,1-0.9,1.6s-0.3,1.4-0.3,2.3v7.9h-2.9L205.5,36.4
				L205.5,36.4z"/>
			<path class="st1" d="M222.7,53.2c0-1.1,0.2-2.2,0.6-3.1c0.4-1,1-1.8,1.7-2.5s1.6-1.3,2.6-1.7c1-0.4,2.1-0.6,3.2-0.6
				s2.2,0.2,3.2,0.6s1.8,1,2.6,1.7c0.7,0.7,1.3,1.6,1.7,2.5s0.6,2,0.6,3.1s-0.2,2.2-0.6,3.1c-0.4,1-1,1.8-1.7,2.6
				c-0.7,0.7-1.6,1.3-2.6,1.7c-1,0.4-2.1,0.6-3.2,0.6s-2.2-0.2-3.2-0.6s-1.9-1-2.6-1.7s-1.3-1.6-1.7-2.6
				C222.9,55.4,222.7,54.3,222.7,53.2z M225.8,53.2c0,0.8,0.1,1.5,0.4,2.1c0.2,0.7,0.6,1.2,1,1.7s1,0.8,1.6,1.1
				c0.6,0.3,1.3,0.4,2.1,0.4c0.8,0,1.5-0.1,2.1-0.4s1.2-0.6,1.6-1.1s0.8-1,1-1.7s0.4-1.4,0.4-2.1s-0.1-1.5-0.4-2.1
				c-0.2-0.7-0.6-1.2-1-1.7s-1-0.8-1.6-1.1c-0.6-0.3-1.3-0.4-2.1-0.4c-0.8,0-1.5,0.1-2.1,0.4s-1.2,0.6-1.6,1.1s-0.8,1-1,1.7
				C225.9,51.7,225.8,52.4,225.8,53.2z"/>
			<path class="st1" d="M258,60.8h-2.9v-2.2H255c-0.6,0.8-1.3,1.5-2.3,1.9c-1,0.5-2,0.7-3,0.7c-1.2,0-2.3-0.2-3.2-0.6
				c-1-0.4-1.8-1-2.5-1.7s-1.2-1.6-1.6-2.5c-0.4-1-0.5-2-0.5-3.2s0.2-2.2,0.5-3.2c0.4-1,0.9-1.8,1.6-2.5s1.5-1.3,2.5-1.7
				c1-0.4,2-0.6,3.2-0.6c1.1,0,2.1,0.2,3.1,0.7s1.7,1.1,2.2,1.9h0.1V36.4h2.9L258,60.8L258,60.8z M250,58.5c0.8,0,1.5-0.1,2.1-0.4
				s1.2-0.6,1.6-1.1s0.8-1,1-1.7s0.4-1.4,0.4-2.1s-0.1-1.5-0.4-2.1s-0.6-1.2-1-1.7s-1-0.8-1.6-1.1s-1.3-0.4-2.1-0.4
				c-0.8,0-1.5,0.1-2.1,0.4s-1.2,0.6-1.6,1.1s-0.8,1-1,1.7s-0.4,1.4-0.4,2.1s0.1,1.5,0.4,2.1c0.2,0.7,0.6,1.2,1,1.7s1,0.8,1.6,1.1
				C248.6,58.4,249.3,58.5,250,58.5z"/>
			<path class="st1" d="M261.6,53.2c0-1.1,0.2-2.2,0.6-3.1s1-1.8,1.7-2.5s1.6-1.3,2.6-1.7c1-0.4,2.1-0.6,3.2-0.6s2.2,0.2,3.2,0.6
				s1.9,1,2.6,1.7s1.3,1.6,1.7,2.5s0.6,2,0.6,3.1s-0.2,2.2-0.6,3.1c-0.4,1-1,1.8-1.7,2.6c-0.7,0.7-1.6,1.3-2.6,1.7
				c-1,0.4-2.1,0.6-3.2,0.6s-2.2-0.2-3.2-0.6s-1.9-1-2.6-1.7s-1.3-1.6-1.7-2.6C261.8,55.4,261.6,54.3,261.6,53.2z M264.7,53.2
				c0,0.8,0.1,1.5,0.4,2.1c0.2,0.7,0.6,1.2,1,1.7s1,0.8,1.6,1.1c0.6,0.3,1.3,0.4,2.1,0.4c0.8,0,1.5-0.1,2.1-0.4s1.2-0.6,1.6-1.1
				s0.8-1,1-1.7s0.4-1.4,0.4-2.1s-0.1-1.5-0.4-2.1c-0.2-0.7-0.6-1.2-1-1.7s-1-0.8-1.6-1.1s-1.3-0.4-2.1-0.4c-0.8,0-1.5,0.1-2.1,0.4
				s-1.2,0.6-1.6,1.1s-0.8,1-1,1.7C264.8,51.7,264.7,52.4,264.7,53.2z"/>
			<path class="st1" d="M281.5,45.5h2.9v2.4h0.1c0.4-0.8,1-1.5,1.9-2s1.9-0.8,3.1-0.8c0.7,0,1.4,0.1,2.1,0.3c0.7,0.2,1.3,0.6,1.8,1
				c0.5,0.5,0.9,1.1,1.2,1.8c0.3,0.7,0.5,1.6,0.5,2.6v9.8h-2.9v-9c0-0.7-0.1-1.3-0.3-1.8s-0.5-0.9-0.8-1.2c-0.3-0.3-0.7-0.5-1.1-0.7
				s-0.9-0.2-1.3-0.2c-0.6,0-1.2,0.1-1.7,0.3s-1,0.5-1.4,0.9s-0.7,1-0.9,1.6c-0.2,0.6-0.3,1.4-0.3,2.3v7.9h-2.9L281.5,45.5
				L281.5,45.5z"/>
			<path class="st1" d="M307.7,48.1h-4.2V55c0,0.4,0,0.9,0,1.3s0.1,0.8,0.2,1.1c0.1,0.3,0.4,0.6,0.6,0.8c0.3,0.2,0.7,0.3,1.3,0.3
				c0.3,0,0.7,0,1.1-0.1s0.7-0.2,1-0.4v2.6c-0.3,0.2-0.8,0.3-1.3,0.4s-1,0.1-1.3,0.1c-1.1,0-2-0.2-2.6-0.5s-1.1-0.7-1.4-1.2
				s-0.5-1-0.5-1.7s-0.1-1.2-0.1-1.9v-8h-3.4v-2.3h3.4v-4.3h2.9v4.3h4.2L307.7,48.1L307.7,48.1z"/>
			<path class="st1" d="M311,40.1c0-0.6,0.2-1.1,0.6-1.5s0.9-0.6,1.5-0.6s1.1,0.2,1.5,0.6s0.6,0.9,0.6,1.5s-0.2,1.1-0.6,1.5
				s-0.9,0.6-1.5,0.6s-1.1-0.2-1.5-0.6C311.2,41.1,311,40.6,311,40.1z M311.6,45.5h2.9v15.3h-2.9V45.5z"/>
			<path class="st1" d="M330.1,49.6c-0.5-0.6-1.1-1-1.7-1.3s-1.3-0.4-2.1-0.4c-0.8,0-1.5,0.1-2.1,0.4s-1.1,0.7-1.5,1.2
				s-0.7,1.1-0.9,1.7c-0.2,0.7-0.3,1.3-0.3,2s0.1,1.4,0.4,2s0.6,1.2,1,1.7s0.9,0.8,1.5,1.1c0.6,0.3,1.3,0.4,2,0.4
				c0.8,0,1.5-0.1,2.1-0.4s1.1-0.7,1.6-1.3l2.1,2.1c-0.8,0.8-1.6,1.4-2.6,1.8s-2.1,0.5-3.2,0.5c-1.2,0-2.3-0.2-3.2-0.6
				c-1-0.4-1.8-0.9-2.5-1.6s-1.3-1.5-1.6-2.5s-0.6-2.1-0.6-3.2s0.2-2.3,0.6-3.3s0.9-1.8,1.6-2.6c0.7-0.7,1.5-1.3,2.5-1.7
				c1-0.4,2.1-0.6,3.3-0.6c1.1,0,2.2,0.2,3.2,0.6s1.9,1,2.7,1.8L330.1,49.6z"/>
			<path class="st1" d="M342.9,49.4c-0.3-0.4-0.8-0.8-1.3-1.1c-0.5-0.3-1.1-0.4-1.9-0.4c-0.7,0-1.3,0.1-1.8,0.4s-0.8,0.7-0.8,1.3
				c0,0.5,0.1,0.8,0.4,1.1c0.3,0.3,0.6,0.5,1,0.7s0.8,0.3,1.3,0.4s0.8,0.2,1.2,0.2c0.6,0.2,1.2,0.3,1.8,0.5s1,0.5,1.4,0.8
				s0.7,0.8,0.9,1.3c0.2,0.5,0.3,1.1,0.3,1.8c0,0.9-0.2,1.6-0.5,2.2s-0.8,1.1-1.4,1.5s-1.2,0.7-2,0.8s-1.5,0.3-2.2,0.3
				c-1.3,0-2.4-0.2-3.3-0.6c-1-0.4-1.8-1.1-2.6-2.1l2.2-1.8c0.5,0.5,1,0.9,1.6,1.3s1.3,0.5,2.1,0.5c0.4,0,0.7,0,1.1-0.1
				s0.7-0.2,1-0.4c0.3-0.2,0.5-0.4,0.7-0.6s0.3-0.5,0.3-0.9s-0.1-0.8-0.4-1.1c-0.3-0.3-0.6-0.5-1-0.7s-0.8-0.3-1.2-0.4
				c-0.4-0.1-0.8-0.2-1.1-0.2c-0.6-0.2-1.2-0.3-1.8-0.5c-0.6-0.2-1.1-0.5-1.5-0.8s-0.8-0.7-1-1.2s-0.4-1.1-0.4-1.8
				c0-0.8,0.2-1.5,0.5-2.1s0.8-1.1,1.3-1.5s1.2-0.7,1.9-0.9c0.7-0.2,1.4-0.3,2.1-0.3c1,0,2,0.2,3,0.6c0.9,0.4,1.7,1,2.3,1.9
				L342.9,49.4z"/>
		</g>
		<g class="st0">
			<path class="st1" d="M121.8,83.7c0-1.1,0.2-2.2,0.6-3.1c0.4-1,1-1.8,1.7-2.5s1.6-1.3,2.6-1.7c1-0.4,2.1-0.6,3.2-0.6
				c1.1,0,2.2,0.2,3.2,0.6s1.9,1,2.6,1.7c0.7,0.7,1.3,1.6,1.7,2.5s0.6,2,0.6,3.1s-0.2,2.2-0.6,3.1c-0.4,1-1,1.8-1.7,2.6
				s-1.6,1.3-2.6,1.7s-2.1,0.6-3.2,0.6c-1.1,0-2.2-0.2-3.2-0.6s-1.9-1-2.6-1.7s-1.3-1.6-1.7-2.6C122,85.9,121.8,84.8,121.8,83.7z
				 M124.9,83.7c0,0.8,0.1,1.5,0.4,2.1c0.2,0.7,0.6,1.2,1,1.7s1,0.8,1.6,1.1c0.6,0.3,1.3,0.4,2.1,0.4s1.5-0.1,2.1-0.4
				s1.2-0.6,1.6-1.1c0.4-0.5,0.8-1,1-1.7s0.4-1.4,0.4-2.1s-0.1-1.5-0.4-2.1c-0.2-0.7-0.6-1.2-1-1.7s-1-0.8-1.6-1.1
				c-0.6-0.3-1.3-0.4-2.1-0.4s-1.5,0.1-2.1,0.4s-1.2,0.6-1.6,1.1c-0.4,0.5-0.8,1-1,1.7C125,82.2,124.9,82.9,124.9,83.7z"/>
			<path class="st1" d="M142.8,78.6h-3.3v-2.5h3.3v-3.4c0-2,0.4-3.6,1.2-4.6s2.1-1.5,4.1-1.5c0.3,0,0.7,0,1,0c0.4,0,0.7,0.1,1.1,0.2
				l-0.3,2.6c-0.3-0.1-0.5-0.2-0.8-0.2s-0.5-0.1-0.8-0.1c-0.5,0-1,0.1-1.3,0.2c-0.3,0.2-0.6,0.4-0.8,0.7c-0.2,0.3-0.3,0.7-0.4,1.1
				s-0.1,0.9-0.1,1.4V76h3.5v2.5h-3.5v12.8h-2.9V78.6z"/>
			<path class="st1" d="M162.8,86.6c0.6,0.8,1.3,1.5,2.1,1.9c0.9,0.4,1.8,0.6,2.7,0.6c0.5,0,1-0.1,1.6-0.2c0.5-0.2,1-0.4,1.5-0.7
				c0.4-0.3,0.8-0.7,1.1-1.2s0.4-1,0.4-1.6c0-0.9-0.3-1.6-0.8-2s-1.3-0.8-2.1-1.2c-0.8-0.3-1.7-0.6-2.7-0.9s-1.9-0.7-2.7-1.2
				s-1.5-1.2-2.1-2.1s-0.8-2.1-0.8-3.5c0-0.7,0.1-1.4,0.4-2.1c0.3-0.8,0.7-1.4,1.4-2.1c0.6-0.6,1.4-1.1,2.4-1.6
				c1-0.4,2.2-0.6,3.5-0.6c1.2,0,2.4,0.2,3.6,0.5c1.1,0.3,2.1,1,3,2.1l-2.5,2.3c-0.4-0.6-0.9-1.1-1.6-1.5c-0.7-0.4-1.5-0.5-2.4-0.5
				s-1.6,0.1-2.1,0.3c-0.6,0.2-1,0.5-1.4,0.9s-0.6,0.7-0.7,1.1c-0.1,0.4-0.2,0.8-0.2,1.1c0,1,0.3,1.7,0.8,2.2
				c0.6,0.5,1.3,0.9,2.1,1.3c0.8,0.3,1.7,0.6,2.7,0.9s1.9,0.6,2.7,1.1s1.5,1.1,2.1,1.9s0.8,1.9,0.8,3.2c0,1.1-0.2,2.1-0.6,3
				c-0.4,0.9-1,1.6-1.7,2.2s-1.5,1.1-2.5,1.4s-2,0.5-3.1,0.5c-1.5,0-2.9-0.3-4.2-0.8s-2.4-1.3-3.1-2.4L162.8,86.6z"/>
			<path class="st1" d="M192.9,91.3H190v-2.4h-0.1c-0.4,0.8-1,1.5-1.9,2s-1.9,0.8-3.1,0.8c-0.8,0-1.5-0.1-2.1-0.3
				c-0.7-0.2-1.3-0.6-1.8-1.1s-0.9-1.1-1.2-1.8c-0.3-0.7-0.5-1.6-0.5-2.6v-9.8h2.9v9c0,0.7,0.1,1.3,0.3,1.8s0.5,0.9,0.8,1.2
				c0.3,0.3,0.7,0.5,1.1,0.7c0.4,0.1,0.9,0.2,1.3,0.2c0.6,0,1.2-0.1,1.7-0.3s1-0.5,1.4-0.9s0.7-1,0.9-1.6s0.3-1.4,0.3-2.3V76h2.9
				L192.9,91.3L192.9,91.3z"/>
			<path class="st1" d="M212.6,91.3h-2.9v-2.2h-0.1c-0.6,0.8-1.3,1.5-2.3,1.9c-1,0.5-2,0.7-3,0.7c-1.2,0-2.3-0.2-3.2-0.6
				c-1-0.4-1.8-1-2.5-1.7s-1.2-1.6-1.6-2.5c-0.4-1-0.5-2-0.5-3.2s0.2-2.2,0.5-3.2c0.4-1,0.9-1.8,1.6-2.5c0.7-0.7,1.5-1.3,2.5-1.7
				c1-0.4,2-0.6,3.2-0.6c1.1,0,2.1,0.2,3.1,0.7s1.7,1.1,2.2,1.9h0.1V66.9h2.9V91.3z M204.7,89c0.8,0,1.5-0.1,2.1-0.4
				s1.2-0.6,1.6-1.1c0.4-0.5,0.8-1,1-1.7s0.4-1.4,0.4-2.1s-0.1-1.5-0.4-2.1c-0.2-0.7-0.6-1.2-1-1.7s-1-0.8-1.6-1.1
				c-0.6-0.3-1.3-0.4-2.1-0.4s-1.5,0.1-2.1,0.4s-1.2,0.6-1.6,1.1s-0.8,1-1,1.7s-0.4,1.4-0.4,2.1s0.1,1.5,0.4,2.1s0.6,1.2,1,1.7
				s1,0.8,1.6,1.1C203.2,88.9,203.9,89,204.7,89z"/>
			<path class="st1" d="M217,66.9h2.9v11.3h0.1c0.5-0.8,1.3-1.4,2.2-1.9c1-0.5,2-0.7,3.1-0.7c1.2,0,2.3,0.2,3.2,0.6
				c1,0.4,1.8,1,2.5,1.7s1.2,1.6,1.6,2.5c0.4,1,0.5,2,0.5,3.2s-0.2,2.2-0.5,3.2c-0.4,1-0.9,1.8-1.6,2.5s-1.5,1.3-2.5,1.7
				c-1,0.4-2,0.6-3.2,0.6c-1,0-2-0.2-3-0.7s-1.7-1.1-2.3-1.9h-0.1v2.2H217L217,66.9L217,66.9z M225,89c0.8,0,1.5-0.1,2.1-0.4
				s1.2-0.6,1.6-1.1s0.8-1,1-1.7s0.4-1.4,0.4-2.1s-0.1-1.5-0.4-2.1c-0.2-0.7-0.6-1.2-1-1.7s-1-0.8-1.6-1.1c-0.6-0.3-1.3-0.4-2.1-0.4
				c-0.8,0-1.5,0.1-2.1,0.4s-1.2,0.6-1.6,1.1c-0.4,0.5-0.8,1-1,1.7s-0.4,1.4-0.4,2.1s0.1,1.5,0.4,2.1c0.2,0.7,0.6,1.2,1,1.7
				s1,0.8,1.6,1.1C223.5,88.9,224.2,89,225,89z"/>
			<path class="st1" d="M250.3,91.3h-2.9v-2.4h-0.1c-0.4,0.8-1,1.5-1.9,2s-1.9,0.8-3.1,0.8c-0.8,0-1.5-0.1-2.1-0.3
				c-0.7-0.2-1.3-0.6-1.8-1.1s-0.9-1.1-1.2-1.8c-0.3-0.7-0.5-1.6-0.5-2.6v-9.8h2.9v9c0,0.7,0.1,1.3,0.3,1.8c0.2,0.5,0.5,0.9,0.8,1.2
				c0.3,0.3,0.7,0.5,1.1,0.7c0.4,0.1,0.9,0.2,1.3,0.2c0.6,0,1.2-0.1,1.7-0.3s1-0.5,1.4-0.9s0.7-1,0.9-1.6c0.2-0.6,0.3-1.4,0.3-2.3
				V76h2.9L250.3,91.3L250.3,91.3z"/>
			<path class="st1" d="M254.7,76h2.9v2.4h0.1c0.2-0.4,0.5-0.8,0.8-1.1s0.7-0.6,1.1-0.9c0.4-0.2,0.8-0.4,1.3-0.6
				c0.5-0.1,0.9-0.2,1.4-0.2s0.9,0.1,1.3,0.2l-0.1,3.1c-0.2-0.1-0.5-0.1-0.7-0.2c-0.2,0-0.5-0.1-0.7-0.1c-1.4,0-2.5,0.4-3.3,1.2
				c-0.8,0.8-1.1,2-1.1,3.7v7.7h-2.9L254.7,76L254.7,76z"/>
			<path class="st1" d="M264.8,76h3.4l4.5,11.9h0.1l4.3-11.9h3.1l-7.3,18.6c-0.3,0.7-0.5,1.3-0.8,1.8s-0.6,1-1,1.4s-0.9,0.7-1.4,0.9
				s-1.2,0.3-2,0.3c-0.4,0-0.9,0-1.3-0.1s-0.9-0.2-1.3-0.3l0.4-2.6c0.6,0.2,1.2,0.4,1.7,0.4c0.4,0,0.8-0.1,1.1-0.2
				c0.3-0.1,0.6-0.3,0.8-0.5c0.2-0.2,0.4-0.5,0.6-0.8c0.1-0.3,0.3-0.6,0.4-1l0.9-2.4L264.8,76z"/>
		</g>
	</g>
	<g>
		<g class="st2">
			<g>
				<path class="st3" d="M33.8,81.2c-1.4,0.1-2.8,0.2-4.3,0.2c-7,0-13.6-1.6-19.5-4.3c-1.1-1.4-2.1-2.9-3-4.4
					c1.7-1.2,3.2-2.3,4.8-3.5c1.4-1.1,2.3-1.2,3.8-0.1c5.5,3.7,11.5,6.5,17.9,8.4C33.4,78.6,33.5,79.9,33.8,81.2z"/>
			</g>
			<g>
				<path class="st3" d="M60.7,69.3c-1.1,1-2.3,2-3.5,2.9c-0.2-2.2-0.5-4.3-0.8-6.4l-2.3,0.4c0.4,2.3,0.7,4.6,0.9,7.1
					c0,0.1,0,0.3,0,0.4c-3,2-6.3,3.7-9.7,4.9c-3,1.1-6.1,1.8-9.3,2.3c-0.9-4,0.2-7.4,2-11.2c0.2-0.3,0.3-0.6,0.5-1
					c0.4-0.9,0.9-2.5,1.2-3.7h-0.1c0-0.1,0.1-0.1,0.1-0.2l-2.1-1c-0.5,1-0.9,2-1.3,3c-0.7,1.7-1.3,3.3-2,5c-0.3,0.7-0.6,1.5-0.8,2.2
					c-0.1,0.3-0.2,0.5-0.3,0.8C27.4,73,21.9,70.4,16.9,67c-2.4-1.6-4.3-1.5-6.5,0.2c-1.5,1.2-3,2.2-4.5,3.4
					c-0.3-0.5-0.5-0.9-0.7-1.4c-1.7-3.2-3-6.7-3.8-10.4c2.3,0.3,4.5,0.5,6.7,1c3.7,0.8,5.3-0.8,6.8-3.4c4.3-8,9.6-14,16.1-18.3
					c1.9-1.3,4-2.4,6.2-3.4c4.8-2.2,10.4-3.1,15.3-2.5c-2.3,8.5-1.2,16.2,1.4,23.3C55.5,60.6,58,65.1,60.7,69.3z"/>
			</g>
			<g>
				<path class="st3" d="M75.6,39.4c-0.8,8.4-3.8,16.2-8.5,22.7c-0.3,0.4-0.6,0.9-1,1.3c-0.6-1-1.2-2-1.7-3
					c-4.7-8.6-6.8-17-4.1-26.6C65.2,34.7,70.2,36.6,75.6,39.4z"/>
			</g>
			<g>
				<path class="st3" d="M45.7,24.3c-4.2-0.1-8.1,0.6-11.9,2.2c-4.4,1.9-8.6,4.9-12.5,9.1l-4.7-3.1c5.4-4.4,11.4-8.3,18.7-9.3
					c0.9-0.1,1.9-0.2,2.8-0.3C40.8,22.7,43.3,23.2,45.7,24.3z"/>
			</g>
			<g>
				<path class="st3" d="M67,12.8c-0.9-1.1-2-1.8-3.2-1.9c-1.2-0.1-2.4,0.3-3.5,1.2c-2.8,2.3-1.5,5.2-0.5,6.8c2.5,1.8,4.8,1.9,6.7,0
					C68.4,17.2,68.6,14.7,67,12.8z M67,12.8c-0.9-1.1-2-1.8-3.2-1.9c-1.2-0.1-2.4,0.3-3.5,1.2c-2.8,2.3-1.5,5.2-0.5,6.8
					c2.5,1.8,4.8,1.9,6.7,0C68.4,17.2,68.6,14.7,67,12.8z M58.8,31.2l1,0.2c5.1,0.8,10.3,2.7,16,5.5c0-0.6,0-1.2,0-1.8
					c0-1.6-0.1-3.1-0.2-4.7c-0.1-0.1-0.2-0.1-0.3-0.2l-0.1-0.1L75.1,30c-1.1-1.7-1.2-3.3-0.3-4.6c-1.9-9-6.4-17-12.7-23.2
					c-1.5-0.5-3-0.9-4.5-1.2c-3.2-0.7-6.5-1-9.9-1C21.4,0,0,21.3,0,47.7c0,3,0.3,6,0.8,8.9c0.2,0,0.5,0,0.7,0.1
					c2.3,0.3,4.7,0.5,7,1.1c2.2,0.5,3,0,4.2-2.2c4.9-9,11-15.6,18.6-20.2c1.5-0.9,3.1-1.7,4.8-2.5c5.6-2.5,12.3-3.5,17.9-2.5
					l1.3,0.2l-0.4,1.2c-2.8,9.1-1.4,17.3,1.7,24.8c1.6,3.9,3.7,7.5,5.9,11c0.8-0.8,1.5-1.6,2.2-2.4c-1.3-2.2-2.6-4.4-3.7-6.7
					c-3.7-7.9-5.5-16.5-2.5-26.4L58.8,31.2z M50.3,27.1C44,26,38.1,26.9,32.7,29.7c-3.6,1.9-7,4.6-10.4,8.2l-0.7,0.8l-9-6l1.2-1
					c6.1-5,13.5-10.2,22.8-11.1c0.5,0,0.9-0.1,1.4-0.1c4.9-0.2,9.3,1.3,13.2,4.5l3.4,2.8L50.3,27.1z M59.6,11.1
					c1.3-1.1,2.9-1.6,4.3-1.5c1.5,0.1,2.9,1,4,2.3c2,2.5,1.8,5.6-0.5,7.8c-1.2,1.1-2.5,1.7-3.9,1.7c-1.4,0-2.9-0.6-4.4-1.7L59,19.6
					C56.8,16.5,57,13.3,59.6,11.1z M66.6,18.9c1.8-1.8,2-4.2,0.4-6.1c-0.9-1.1-2-1.8-3.2-1.9c-1.2-0.1-2.4,0.3-3.5,1.2
					c-2.8,2.3-1.5,5.2-0.5,6.8C62.4,20.7,64.7,20.7,66.6,18.9z M67,12.8c-0.9-1.1-2-1.8-3.2-1.9c-1.2-0.1-2.4,0.3-3.5,1.2
					c-2.8,2.3-1.5,5.2-0.5,6.8c2.5,1.8,4.8,1.9,6.7,0C68.4,17.2,68.6,14.7,67,12.8z M67,12.8c-0.9-1.1-2-1.8-3.2-1.9
					c-1.2-0.1-2.4,0.3-3.5,1.2c-2.8,2.3-1.5,5.2-0.5,6.8c2.5,1.8,4.8,1.9,6.7,0C68.4,17.2,68.6,14.7,67,12.8z"/>
			</g>
		</g>
		<g class="st2">
			<g>
				<path class="st4" d="M62.1,71.4l-4.7,2.7c0-0.4-0.1-0.7-0.1-1.1c0-0.3-0.1-0.6-0.1-0.9c-0.2-2.2-0.5-4.3-0.8-6.4l-2.3,0.4
					c0.4,2.3,0.7,4.6,0.9,7.1c0,0.1,0,0.3,0,0.4c0,0.5,0.1,0.9,0.2,1.4c-1.9,2.9-3.6,5.3-5.6,7.2c-2.7,2.6-5.9,4.2-10.9,4.8
					c-1.4-2.2-2.3-4.2-2.7-6.1c-0.9-4,0.2-7.4,2-11.2c0.2-0.3,0.3-0.6,0.5-1c0.4-0.9,0.9-2.5,1.2-3.7h-0.1c0-0.1,0.1-0.1,0.1-0.2
					l-2.1-1c-0.5,1-0.9,2-1.3,3c-0.7,1.7-1.3,3.3-2,5c-0.3,0.7-0.6,1.5-0.8,2.2c-0.1,0.3-0.2,0.5-0.3,0.8C27.4,73,21.9,70.4,16.9,67
					c-2.4-1.6-4.3-1.5-6.5,0.2c-1.5,1.2-3,2.2-4.5,3.4c-0.3-0.5-0.5-0.9-0.7-1.4c6.7-7.4,16-12.7,26.4-14.6c2.8-0.5,5.7-0.8,8.6-0.8
					c4.7,0,9.2,0.7,13.4,1.9c1.8,4.8,4.3,9.4,7,13.6C61.1,70,61.6,70.7,62.1,71.4z"/>
			</g>
			<g>
				<path class="st4" d="M71.1,65.1c-0.8,0.8-1.6,1.5-2.4,2.2c-0.9-1.3-1.7-2.6-2.5-3.9c-0.6-1-1.2-2-1.7-3c0.9,0.5,1.8,1.1,2.7,1.7
					C68.5,63,69.8,64,71.1,65.1z"/>
			</g>
			<g>
				<path class="st4" d="M82.8,79.9c-4.1,4.5-9,8.1-14.5,10.8c-6.3,3-13.3,4.7-20.7,4.7c-15.2,0-28.8-7.2-37.6-18.3
					c-1.1-1.4-2.1-2.9-3-4.4c1.7-1.2,3.2-2.3,4.8-3.5c1.4-1.1,2.3-1.2,3.8-0.1c5.5,3.7,11.5,6.5,17.9,8.4c-0.1,1.2,0,2.5,0.3,3.8
					c0.5,2.4,1.5,4.9,3.4,7.7l0.4,0.6l0.7-0.1c6.3-0.6,10.2-2.8,13.3-5.8c1.8-1.8,3.3-3.9,4.9-6.2l8.9-5.2l-0.7-1
					c-0.8-1.2-1.5-2.3-2.2-3.5c-2.2-3.5-4.2-7.2-5.9-11c1.5,0.5,3,1.2,4.4,1.9c1.1,2.3,2.3,4.5,3.7,6.7c0.9,1.4,1.8,2.8,2.8,4.2
					l0.5,0.8l0.9-0.4c0.1,0,0.1,0,0.2-0.1c0.2-0.1,0.5-0.2,0.8-0.4c1-0.9,2.1-1.8,3.1-2.8C76.8,70.4,80.2,74.9,82.8,79.9z"/>
			</g>
		</g>
		<g class="st2">
			<g>
				<path class="st1" d="M62.1,71.4l-4.7,2.7c0-0.4-0.1-0.7-0.1-1.1c0-0.3-0.1-0.6-0.1-0.9c-0.2-2.2-0.5-4.3-0.8-6.4l-2.3,0.4
					c0.4,2.3,0.7,4.6,0.9,7.1c0,0.1,0,0.3,0,0.4c0,0.5,0.1,0.9,0.2,1.4c-1.9,2.9-3.6,5.3-5.6,7.2c-1.5-1.1-2.9-2.3-4.3-3.6
					C42.5,76,40.1,73,38,69.7c0.2-0.3,0.3-0.6,0.5-1c0.4-0.9,0.9-2.5,1.2-3.7h-0.1c0-0.1,0.1-0.1,0.1-0.2l-2.1-1c-0.5,1-0.9,2-1.3,3
					c-2.1-3.8-3.7-7.9-4.7-12.3c-0.8-3.4-1.2-6.9-1.2-10.6c0-1.9,0.1-3.8,0.3-5.7c1.9-1.3,4-2.4,6.2-3.4c4.8-2.2,10.4-3.1,15.3-2.5
					c-2.3,8.5-1.2,16.2,1.4,23.3c1.8,4.8,4.3,9.4,7,13.6C61.1,70,61.6,70.7,62.1,71.4z"/>
			</g>
			<g>
				<path class="st1" d="M82.5,43.4c-1.8-1.2-3.8-2.4-6.4-3.8c-0.2-0.1-0.3-0.2-0.5-0.2c-0.8,8.4-3.8,16.2-8.5,22.7
					c1.4,0.9,2.7,1.9,4,3c4.8-4.5,9-10,12.8-16.5c0.4-0.7,0.6-1.3,0.6-2C84.5,45.4,83.8,44.3,82.5,43.4z M38.1,22.9
					c-1,0-1.9,0.1-2.8,0.3c-0.5,1.1-1,2.2-1.5,3.4c3.8-1.6,7.7-2.3,11.9-2.2C43.3,23.2,40.8,22.7,38.1,22.9z M82.5,43.4
					c-1.8-1.2-3.8-2.4-6.4-3.8c-0.2-0.1-0.3-0.2-0.5-0.2c-5.4-2.8-10.4-4.7-15.2-5.6c-2.7,9.6-0.6,18,4.1,26.6c0.5,1,1.1,2,1.7,3
					c0.8,1.3,1.6,2.6,2.5,3.9c0.8-0.7,1.6-1.4,2.4-2.2c4.8-4.5,9-10,12.8-16.5c0.4-0.7,0.6-1.3,0.6-2C84.5,45.4,83.8,44.3,82.5,43.4
					z M82.5,43.4c-1.8-1.2-3.8-2.4-6.4-3.8c-0.2-0.1-0.3-0.2-0.5-0.2c-5.4-2.8-10.4-4.7-15.2-5.6c-2.7,9.6-0.6,18,4.1,26.6
					c0.5,1,1.1,2,1.7,3c0.8,1.3,1.6,2.6,2.5,3.9c0.8-0.7,1.6-1.4,2.4-2.2c4.8-4.5,9-10,12.8-16.5c0.4-0.7,0.6-1.3,0.6-2
					C84.5,45.4,83.8,44.3,82.5,43.4z M79.8,26.1c-0.5-0.6-1-0.9-1.6-1c-0.6-0.1-1.2,0.2-1.8,0.6c-1.3,1.1-0.9,2.5-0.2,3.4
					c2,1.4,3,0.4,3.4,0C80.5,28.3,80.6,27.1,79.8,26.1z M82.5,43.4c-1.8-1.2-3.8-2.4-6.4-3.8c-0.2-0.1-0.3-0.2-0.5-0.2
					c-5.4-2.8-10.4-4.7-15.2-5.6c-2.7,9.6-0.6,18,4.1,26.6c0.5,1,1.1,2,1.7,3c0.8,1.3,1.6,2.6,2.5,3.9c0.8-0.7,1.6-1.4,2.4-2.2
					c4.8-4.5,9-10,12.8-16.5c0.4-0.7,0.6-1.3,0.6-2C84.5,45.4,83.8,44.3,82.5,43.4z M82.5,43.4c-1.8-1.2-3.8-2.4-6.4-3.8
					c-0.2-0.1-0.3-0.2-0.5-0.2c-5.4-2.8-10.4-4.7-15.2-5.6c-2.7,9.6-0.6,18,4.1,26.6c0.5,1,1.1,2,1.7,3c0.8,1.3,1.6,2.6,2.5,3.9
					c0.8-0.7,1.6-1.4,2.4-2.2c4.8-4.5,9-10,12.8-16.5c0.4-0.7,0.6-1.3,0.6-2C84.5,45.4,83.8,44.3,82.5,43.4z M79.8,26.1
					c-0.5-0.6-1-0.9-1.6-1c-0.6-0.1-1.2,0.2-1.8,0.6c-1.3,1.1-0.9,2.5-0.2,3.4c2,1.4,3,0.4,3.4,0C80.5,28.3,80.6,27.1,79.8,26.1z
					 M79.8,26.1c-0.5-0.6-1-0.9-1.6-1c-0.6-0.1-1.2,0.2-1.8,0.6c-1.3,1.1-0.9,2.5-0.2,3.4c2,1.4,3,0.4,3.4,0
					C80.5,28.3,80.6,27.1,79.8,26.1z M82.5,43.4c-1.8-1.2-3.8-2.4-6.4-3.8c-0.2-0.1-0.3-0.2-0.5-0.2c-5.4-2.8-10.4-4.7-15.2-5.6
					c-2.7,9.6-0.6,18,4.1,26.6c0.5,1,1.1,2,1.7,3c0.8,1.3,1.6,2.6,2.5,3.9c0.8-0.7,1.6-1.4,2.4-2.2c4.8-4.5,9-10,12.8-16.5
					c0.4-0.7,0.6-1.3,0.6-2C84.5,45.4,83.8,44.3,82.5,43.4z M82.5,43.4c-1.8-1.2-3.8-2.4-6.4-3.8c-0.2-0.1-0.3-0.2-0.5-0.2
					c-5.4-2.8-10.4-4.7-15.2-5.6c-2.7,9.6-0.6,18,4.1,26.6c0.5,1,1.1,2,1.7,3c0.8,1.3,1.6,2.6,2.5,3.9c0.8-0.7,1.6-1.4,2.4-2.2
					c4.8-4.5,9-10,12.8-16.5c0.4-0.7,0.6-1.3,0.6-2C84.5,45.4,83.8,44.3,82.5,43.4z M79.8,26.1c-0.5-0.6-1-0.9-1.6-1
					c-0.6-0.1-1.2,0.2-1.8,0.6c-1.3,1.1-0.9,2.5-0.2,3.4c2,1.4,3,0.4,3.4,0C80.5,28.3,80.6,27.1,79.8,26.1z M67,12.8
					c-0.9-1.1-2-1.8-3.2-1.9c-1.2-0.1-2.4,0.3-3.5,1.2c-2.8,2.3-1.5,5.2-0.5,6.8c2.5,1.8,4.8,1.9,6.7,0C68.4,17.2,68.6,14.7,67,12.8
					z M79.8,26.1c-0.5-0.6-1-0.9-1.6-1c-0.6-0.1-1.2,0.2-1.8,0.6c-1.3,1.1-0.9,2.5-0.2,3.4c2,1.4,3,0.4,3.4,0
					C80.5,28.3,80.6,27.1,79.8,26.1z M82.5,43.4c-1.8-1.2-3.8-2.4-6.4-3.8c-0.2-0.1-0.3-0.2-0.5-0.2c-5.4-2.8-10.4-4.7-15.2-5.6
					c-2.7,9.6-0.6,18,4.1,26.6c0.5,1,1.1,2,1.7,3c0.8,1.3,1.6,2.6,2.5,3.9c0.8-0.7,1.6-1.4,2.4-2.2c4.8-4.5,9-10,12.8-16.5
					c0.4-0.7,0.6-1.3,0.6-2C84.5,45.4,83.8,44.3,82.5,43.4z M82.5,43.4c-1.8-1.2-3.8-2.4-6.4-3.8c-0.2-0.1-0.3-0.2-0.5-0.2
					c-5.4-2.8-10.4-4.7-15.2-5.6c-2.7,9.6-0.6,18,4.1,26.6c0.5,1,1.1,2,1.7,3c0.8,1.3,1.6,2.6,2.5,3.9c0.8-0.7,1.6-1.4,2.4-2.2
					c4.8-4.5,9-10,12.8-16.5c0.4-0.7,0.6-1.3,0.6-2C84.5,45.4,83.8,44.3,82.5,43.4z M67,12.8c-0.9-1.1-2-1.8-3.2-1.9
					c-1.2-0.1-2.4,0.3-3.5,1.2c-2.8,2.3-1.5,5.2-0.5,6.8c2.5,1.8,4.8,1.9,6.7,0C68.4,17.2,68.6,14.7,67,12.8z M79.8,26.1
					c-0.5-0.6-1-0.9-1.6-1c-0.6-0.1-1.2,0.2-1.8,0.6c-1.3,1.1-0.9,2.5-0.2,3.4c2,1.4,3,0.4,3.4,0C80.5,28.3,80.6,27.1,79.8,26.1z
					 M85.5,18.7c-1.1,0.6-2.3,0.9-3.5,0.9c-2,0-4.1-0.8-6.3-2.4l-0.1-0.1L75.5,17c-2.2-3.2-2.6-6.4-1.4-9.1c-3.7-2.4-7.7-4.4-12-5.7
					c-1.5-0.5-3-0.9-4.5-1.2c-8.9,4.3-16.2,11.1-21,19.6c0.5,0,0.9-0.1,1.4-0.1c4.9-0.2,9.3,1.3,13.2,4.5l3.4,2.8L50.2,27
					c-6.3-1.1-12.2-0.2-17.6,2.6c-0.6,1.8-1.1,3.7-1.4,5.7c1.5-0.9,3.1-1.7,4.8-2.5c5.6-2.5,12.3-3.5,17.9-2.5l1.3,0.2l-0.4,1.2
					C52,40.8,53.4,49,56.5,56.5c1.6,3.9,3.7,7.5,5.9,11c0.7,1.2,1.5,2.3,2.2,3.5l0.7,1l-8.9,5.2c-1.5,2.3-3,4.4-4.9,6.2
					c5,3.4,10.7,5.8,16.7,7.1c5.5-2.7,10.4-6.4,14.5-10.8c7.8-8.5,12.5-19.8,12.5-32.2C95.3,36.8,91.6,26.8,85.5,18.7z M75.5,24.6
					c0.8-0.7,1.8-1,2.8-0.9s1.9,0.6,2.6,1.5c1.3,1.6,1.1,3.6-0.3,5c-0.8,0.7-1.6,1.1-2.5,1.1c-0.8,0-1.6-0.3-2.5-0.8
					c-0.1-0.1-0.2-0.1-0.3-0.2l-0.1-0.1l-0.1-0.1c-1.1-1.7-1.2-3.3-0.3-4.6C74.9,25.1,75.2,24.9,75.5,24.6z M59.6,11.1
					c1.3-1.1,2.9-1.6,4.3-1.5c1.5,0.1,2.9,1,4,2.3c2,2.5,1.8,5.6-0.5,7.8c-1.2,1.1-2.5,1.7-3.9,1.7c-1.4,0-2.9-0.6-4.4-1.7L59,19.6
					C56.8,16.5,57,13.3,59.6,11.1z M72.8,66.6c-1,1-2,1.9-3.1,2.8c-0.3,0.2-0.6,0.3-0.8,0.4c-0.1,0-0.1,0-0.2,0.1l-0.9,0.4l-0.5-0.8
					c-0.9-1.4-1.9-2.8-2.8-4.2c-1.3-2.2-2.6-4.4-3.7-6.7c-3.7-7.9-5.5-16.5-2.5-26.4l0.3-1l1,0.2c5.1,0.8,10.3,2.7,16,5.5
					c0.5,0.2,0.9,0.5,1.4,0.7c2.7,1.4,4.8,2.6,6.6,3.9c3,2,3.9,5.4,2.1,8.4C82,56.4,77.7,61.9,72.8,66.6z M82.5,43.4
					c-1.8-1.2-3.8-2.4-6.4-3.8c-0.2-0.1-0.3-0.2-0.5-0.2c-5.4-2.8-10.4-4.7-15.2-5.6c-2.7,9.6-0.6,18,4.1,26.6c0.5,1,1.1,2,1.7,3
					c0.8,1.3,1.6,2.6,2.5,3.9c0.8-0.7,1.6-1.4,2.4-2.2c4.8-4.5,9-10,12.8-16.5c0.4-0.7,0.6-1.3,0.6-2C84.5,45.4,83.8,44.3,82.5,43.4
					z M84.5,17.5c-2.7-3.3-5.8-6.2-9.2-8.7c-1.1,2.7,0.2,5.5,1.4,7.2C79.5,18.2,82.2,18.7,84.5,17.5z M79.6,29.2
					c0.9-0.9,1-2.1,0.2-3.1c-0.5-0.6-1-0.9-1.6-1c-0.6-0.1-1.2,0.2-1.8,0.6c-1.3,1.1-0.9,2.5-0.2,3.4C78.1,30.6,79.2,29.5,79.6,29.2
					z M66.6,18.9c1.8-1.8,2-4.2,0.4-6.1c-0.9-1.1-2-1.8-3.2-1.9c-1.2-0.1-2.4,0.3-3.5,1.2c-2.8,2.3-1.5,5.2-0.5,6.8
					C62.4,20.7,64.7,20.7,66.6,18.9z M79.8,26.1c-0.5-0.6-1-0.9-1.6-1c-0.6-0.1-1.2,0.2-1.8,0.6c-1.3,1.1-0.9,2.5-0.2,3.4
					c2,1.4,3,0.4,3.4,0C80.5,28.3,80.6,27.1,79.8,26.1z M67,12.8c-0.9-1.1-2-1.8-3.2-1.9c-1.2-0.1-2.4,0.3-3.5,1.2
					c-2.8,2.3-1.5,5.2-0.5,6.8c2.5,1.8,4.8,1.9,6.7,0C68.4,17.2,68.6,14.7,67,12.8z M82.5,43.4c-1.8-1.2-3.8-2.4-6.4-3.8
					c-0.2-0.1-0.3-0.2-0.5-0.2c-5.4-2.8-10.4-4.7-15.2-5.6c-2.7,9.6-0.6,18,4.1,26.6c0.5,1,1.1,2,1.7,3c0.8,1.3,1.6,2.6,2.5,3.9
					c0.8-0.7,1.6-1.4,2.4-2.2c4.8-4.5,9-10,12.8-16.5c0.4-0.7,0.6-1.3,0.6-2C84.5,45.4,83.8,44.3,82.5,43.4z M82.5,43.4
					c-1.8-1.2-3.8-2.4-6.4-3.8c-0.2-0.1-0.3-0.2-0.5-0.2c-5.4-2.8-10.4-4.7-15.2-5.6c-2.7,9.6-0.6,18,4.1,26.6c0.5,1,1.1,2,1.7,3
					c0.8,1.3,1.6,2.6,2.5,3.9c0.8-0.7,1.6-1.4,2.4-2.2c4.8-4.5,9-10,12.8-16.5c0.4-0.7,0.6-1.3,0.6-2C84.5,45.4,83.8,44.3,82.5,43.4
					z M79.8,26.1c-0.5-0.6-1-0.9-1.6-1c-0.6-0.1-1.2,0.2-1.8,0.6c-1.3,1.1-0.9,2.5-0.2,3.4c2,1.4,3,0.4,3.4,0
					C80.5,28.3,80.6,27.1,79.8,26.1z M67,12.8c-0.9-1.1-2-1.8-3.2-1.9c-1.2-0.1-2.4,0.3-3.5,1.2c-2.8,2.3-1.5,5.2-0.5,6.8
					c2.5,1.8,4.8,1.9,6.7,0C68.4,17.2,68.6,14.7,67,12.8z M79.8,26.1c-0.5-0.6-1-0.9-1.6-1c-0.6-0.1-1.2,0.2-1.8,0.6
					c-1.3,1.1-0.9,2.5-0.2,3.4c2,1.4,3,0.4,3.4,0C80.5,28.3,80.6,27.1,79.8,26.1z M82.5,43.4c-1.8-1.2-3.8-2.4-6.4-3.8
					c-0.2-0.1-0.3-0.2-0.5-0.2c-5.4-2.8-10.4-4.7-15.2-5.6c-2.7,9.6-0.6,18,4.1,26.6c0.5,1,1.1,2,1.7,3c0.8,1.3,1.6,2.6,2.5,3.9
					c0.8-0.7,1.6-1.4,2.4-2.2c4.8-4.5,9-10,12.8-16.5c0.4-0.7,0.6-1.3,0.6-2C84.5,45.4,83.8,44.3,82.5,43.4z M82.5,43.4
					c-1.8-1.2-3.8-2.4-6.4-3.8c-0.2-0.1-0.3-0.2-0.5-0.2c-5.4-2.8-10.4-4.7-15.2-5.6c-2.7,9.6-0.6,18,4.1,26.6c0.5,1,1.1,2,1.7,3
					c0.8,1.3,1.6,2.6,2.5,3.9c0.8-0.7,1.6-1.4,2.4-2.2c4.8-4.5,9-10,12.8-16.5c0.4-0.7,0.6-1.3,0.6-2C84.5,45.4,83.8,44.3,82.5,43.4
					z M79.8,26.1c-0.5-0.6-1-0.9-1.6-1c-0.6-0.1-1.2,0.2-1.8,0.6c-1.3,1.1-0.9,2.5-0.2,3.4c2,1.4,3,0.4,3.4,0
					C80.5,28.3,80.6,27.1,79.8,26.1z M79.8,26.1c-0.5-0.6-1-0.9-1.6-1c-0.6-0.1-1.2,0.2-1.8,0.6c-1.3,1.1-0.9,2.5-0.2,3.4
					c2,1.4,3,0.4,3.4,0C80.5,28.3,80.6,27.1,79.8,26.1z M82.5,43.4c-1.8-1.2-3.8-2.4-6.4-3.8c-0.2-0.1-0.3-0.2-0.5-0.2
					c-5.4-2.8-10.4-4.7-15.2-5.6c-2.7,9.6-0.6,18,4.1,26.6c0.5,1,1.1,2,1.7,3c0.8,1.3,1.6,2.6,2.5,3.9c0.8-0.7,1.6-1.4,2.4-2.2
					c4.8-4.5,9-10,12.8-16.5c0.4-0.7,0.6-1.3,0.6-2C84.5,45.4,83.8,44.3,82.5,43.4z M82.5,43.4c-1.8-1.2-3.8-2.4-6.4-3.8
					c-0.2-0.1-0.3-0.2-0.5-0.2c-5.4-2.8-10.4-4.7-15.2-5.6c-2.7,9.6-0.6,18,4.1,26.6c0.5,1,1.1,2,1.7,3c0.8,1.3,1.6,2.6,2.5,3.9
					c0.8-0.7,1.6-1.4,2.4-2.2c4.8-4.5,9-10,12.8-16.5c0.4-0.7,0.6-1.3,0.6-2C84.5,45.4,83.8,44.3,82.5,43.4z M79.8,26.1
					c-0.5-0.6-1-0.9-1.6-1c-0.6-0.1-1.2,0.2-1.8,0.6c-1.3,1.1-0.9,2.5-0.2,3.4c2,1.4,3,0.4,3.4,0C80.5,28.3,80.6,27.1,79.8,26.1z
					 M82.5,43.4c-1.8-1.2-3.8-2.4-6.4-3.8c-0.2-0.1-0.3-0.2-0.5-0.2c-5.4-2.8-10.4-4.7-15.2-5.6c-2.7,9.6-0.6,18,4.1,26.6
					c0.5,1,1.1,2,1.7,3c0.8,1.3,1.6,2.6,2.5,3.9c0.8-0.7,1.6-1.4,2.4-2.2c4.8-4.5,9-10,12.8-16.5c0.4-0.7,0.6-1.3,0.6-2
					C84.5,45.4,83.8,44.3,82.5,43.4z M82.5,43.4c-1.8-1.2-3.8-2.4-6.4-3.8c-0.2-0.1-0.3-0.2-0.5-0.2c-5.4-2.8-10.4-4.7-15.2-5.6
					c-2.7,9.6-0.6,18,4.1,26.6c0.5,1,1.1,2,1.7,3c0.8,1.3,1.6,2.6,2.5,3.9c0.8-0.7,1.6-1.4,2.4-2.2c4.8-4.5,9-10,12.8-16.5
					c0.4-0.7,0.6-1.3,0.6-2C84.5,45.4,83.8,44.3,82.5,43.4z"/>
			</g>
		</g>
	</g>
</g>
</svg>
